<?xml version="1.0" encoding="UTF-8"?>
<svg id="_图层_2" data-name=" 图层 2" xmlns="http://www.w3.org/2000/svg" xmlns:xlink="http://www.w3.org/1999/xlink" viewBox="0 0 56.68 31.79">
  <defs>
    <style>
      .cls-1, .cls-2, .cls-3, .cls-4, .cls-5, .cls-6, .cls-7 {
        fill: none;
      }

      .cls-2 {
        clip-path: url(#clippath-5);
      }

      .cls-3 {
        clip-path: url(#clippath-3);
      }

      .cls-4 {
        clip-path: url(#clippath-4);
      }

      .cls-5 {
        clip-path: url(#clippath-2);
      }

      .cls-6 {
        clip-path: url(#clippath-1);
      }

      .cls-8 {
        fill: #172a88;
      }

      .cls-9 {
        fill: url(#_未命名的渐变_10);
      }

      .cls-10 {
        fill: url(#_未命名的渐变_15);
      }

      .cls-11 {
        fill: url(#_未命名的渐变_16);
      }

      .cls-12 {
        fill: url(#_未命名的渐变_17);
      }

      .cls-13 {
        fill: url(#_未命名的渐变_19);
      }

      .cls-14 {
        fill: url(#_未命名的渐变_14);
      }

      .cls-15 {
        fill: url(#_未命名的渐变_18);
      }

      .cls-16 {
        fill: url(#_未命名的渐变_11);
      }

      .cls-17 {
        fill: url(#_未命名的渐变_13);
      }

      .cls-18 {
        fill: url(#_未命名的渐变_12);
      }

      .cls-19 {
        fill: url(#_未命名的渐变_27);
      }

      .cls-20 {
        fill: url(#_未命名的渐变_20);
      }

      .cls-21 {
        fill: url(#_未命名的渐变_25);
      }

      .cls-22 {
        fill: url(#_未命名的渐变_24);
      }

      .cls-23 {
        fill: url(#_未命名的渐变_22);
      }

      .cls-24 {
        fill: url(#_未命名的渐变_28);
      }

      .cls-25 {
        fill: url(#_未命名的渐变_26);
      }

      .cls-26 {
        fill: url(#_未命名的渐变_23);
      }

      .cls-27 {
        fill: url(#_未命名的渐变_21);
      }

      .cls-28 {
        fill: url(#_未命名的渐变_9);
      }

      .cls-29 {
        fill: url(#_未命名的渐变_6);
      }

      .cls-30 {
        fill: url(#_未命名的渐变_7);
      }

      .cls-31 {
        fill: url(#_未命名的渐变_8);
      }

      .cls-32 {
        fill: url(#_未命名的渐变_5);
      }

      .cls-33 {
        fill: url(#_未命名的渐变_3);
      }

      .cls-34 {
        fill: url(#_未命名的渐变_4);
      }

      .cls-35 {
        fill: url(#_未命名的渐变_2);
      }

      .cls-36 {
        fill: url(#_未命名的渐变);
      }

      .cls-7 {
        clip-path: url(#clippath);
      }
    </style>
    <clipPath id="clippath">
      <path class="cls-1" d="m14.62,5.61c.53.31,1.02.67,1.47,1.07,1.75,1.59,2.86,3.88,2.86,6.43,0,3.66-2.27,6.79-5.47,8.06-.54.21-1.1.37-1.69.48-4.66.82-5.9-4.27-1.21-6.68,6.49-3.34,6.43-7.98,4.04-9.36Z"/>
    </clipPath>
    <radialGradient id="_未命名的渐变" data-name="未命名的渐变" cx="-118.19" cy="47.56" fx="-118.19" fy="47.56" r="10.88" gradientTransform="translate(134.13 51.27) rotate(-4.13) scale(1 -1)" gradientUnits="userSpaceOnUse">
      <stop offset="0" stop-color="#a1d8e6"/>
      <stop offset=".5" stop-color="#22ac38"/>
      <stop offset="1" stop-color="#172a88"/>
    </radialGradient>
    <radialGradient id="_未命名的渐变_2" data-name="未命名的渐变 2" cx="96.7" cy=".2" fx="96.7" fy=".2" r="14.09" gradientTransform="translate(-83.52 .81) rotate(4.66) scale(1 -1)" gradientUnits="userSpaceOnUse">
      <stop offset="0" stop-color="#a1d8e6"/>
      <stop offset=".5" stop-color="#22ac38"/>
      <stop offset="1" stop-color="#172a88"/>
    </radialGradient>
    <radialGradient id="_未命名的渐变_3" data-name="未命名的渐变 3" cx="11.97" cy="-12.04" fx="11.97" fy="-12.04" r="10.36" gradientTransform="translate(-.07 -.9) rotate(6.25) scale(1 -1)" gradientUnits="userSpaceOnUse">
      <stop offset="0" stop-color="#a1d8e6"/>
      <stop offset=".5" stop-color="#22ac38"/>
      <stop offset="1" stop-color="#172a88"/>
    </radialGradient>
    <radialGradient id="_未命名的渐变_4" data-name="未命名的渐变 4" cx="13.62" cy="22.07" fx="13.62" fy="22.07" r="13.18" gradientTransform="translate(.35 31.75) scale(1 -1)" gradientUnits="userSpaceOnUse">
      <stop offset="0" stop-color="#a1d8e6"/>
      <stop offset=".5" stop-color="#22ac38"/>
      <stop offset="1" stop-color="#172a88"/>
    </radialGradient>
    <radialGradient id="_未命名的渐变_5" data-name="未命名的渐变 5" cx="14.71" cy="21.75" fx="14.71" fy="21.75" r="13.99" gradientTransform="translate(.35 31.75) scale(1 -1)" gradientUnits="userSpaceOnUse">
      <stop offset="0" stop-color="#a1d8e6"/>
      <stop offset=".5" stop-color="#22ac38"/>
      <stop offset="1" stop-color="#172a88"/>
    </radialGradient>
    <clipPath id="clippath-1">
      <path class="cls-1" d="m9.36,26.37c4.79,1.74,7.1-5.37.87-6.13-5.02-.62-6.92-2.57-6.05-4.97-.34.95-.52,1.96-.52,2.96,0,2.77,1.3,5.24,3.33,6.83.71.56,1.51,1,2.37,1.32h0Z"/>
    </clipPath>
    <radialGradient id="_未命名的渐变_6" data-name="未命名的渐变 6" cx="-61.09" cy="39" fx="-61.09" fy="39" r="10.71" gradientTransform="translate(70.91 50.98) rotate(-3.96) scale(1 -1)" gradientUnits="userSpaceOnUse">
      <stop offset="0" stop-color="#a1d8e6"/>
      <stop offset=".5" stop-color="#22ac38"/>
      <stop offset="1" stop-color="#172a88"/>
    </radialGradient>
    <radialGradient id="_未命名的渐变_7" data-name="未命名的渐变 7" cx="-46.51" cy="48.57" fx="-46.51" fy="48.57" r="15" gradientTransform="translate(57.35 61.52) rotate(-5.75) scale(1 -1)" gradientUnits="userSpaceOnUse">
      <stop offset="0" stop-color="#a1d8e6"/>
      <stop offset=".5" stop-color="#22ac38"/>
      <stop offset="1" stop-color="#172a88"/>
    </radialGradient>
    <radialGradient id="_未命名的渐变_8" data-name="未命名的渐变 8" cx="-89.21" cy="-1.86" fx="-89.21" fy="-1.86" r="11.98" gradientTransform="translate(88.4 14.71) rotate(-2.57) scale(.94 -.97) skewX(-1.4)" gradientUnits="userSpaceOnUse">
      <stop offset="0" stop-color="#a1d8e6"/>
      <stop offset=".5" stop-color="#22ac38"/>
      <stop offset="1" stop-color="#172a88"/>
    </radialGradient>
    <radialGradient id="_未命名的渐变_9" data-name="未命名的渐变 9" cx="6.66" cy="13.91" fx="6.66" fy="13.91" r="11.92" gradientTransform="translate(.35 31.75) scale(1 -1)" gradientUnits="userSpaceOnUse">
      <stop offset="0" stop-color="#a1d8e6"/>
      <stop offset=".5" stop-color="#22ac38"/>
      <stop offset="1" stop-color="#172a88"/>
    </radialGradient>
    <clipPath id="clippath-2">
      <path class="cls-1" d="m13.25,4.98c-4.79-1.74-7.1,5.37-.87,6.13,5.02.62,6.92,2.57,6.05,4.97.34-.95.52-1.96.52-2.96,0-2.77-1.3-5.24-3.33-6.83-.71-.56-1.51-1-2.37-1.32h0Z"/>
    </clipPath>
    <radialGradient id="_未命名的渐变_10" data-name="未命名的渐变 10" cx="-3.12" cy="26.38" fx="-3.12" fy="26.38" r="24.74" gradientTransform="translate(.35 31.75) scale(1 -1)" gradientUnits="userSpaceOnUse">
      <stop offset="0" stop-color="#8ec4d9"/>
      <stop offset=".5" stop-color="#4b9f38"/>
      <stop offset="1" stop-color="#023961"/>
    </radialGradient>
    <radialGradient id="_未命名的渐变_11" data-name="未命名的渐变 11" cx="14.37" cy="55.38" fx="14.37" fy="55.38" r="37.65" gradientTransform="translate(-31.13 51.99) rotate(-3.34) scale(1.13 -1.17) skewX(1.41)" gradientUnits="userSpaceOnUse">
      <stop offset="0" stop-color="#a1d8e6"/>
      <stop offset=".5" stop-color="#22ac38"/>
      <stop offset="1" stop-color="#172a88"/>
    </radialGradient>
    <radialGradient id="_未命名的渐变_12" data-name="未命名的渐变 12" cx="-.57" cy="41.86" fx="-.57" fy="41.86" r="27.52" gradientTransform="translate(.35 31.75) scale(1 -1)" gradientUnits="userSpaceOnUse">
      <stop offset="0" stop-color="#a1d8e6"/>
      <stop offset=".5" stop-color="#22ac38"/>
      <stop offset="1" stop-color="#172a88"/>
    </radialGradient>
    <radialGradient id="_未命名的渐变_13" data-name="未命名的渐变 13" cx="-9.71" cy="23.52" fx="-9.71" fy="23.52" r="31.79" gradientTransform="translate(-.31 19.66) rotate(-1.13) scale(1 -1)" gradientUnits="userSpaceOnUse">
      <stop offset="0" stop-color="#a1d8e6"/>
      <stop offset=".5" stop-color="#22ac38"/>
      <stop offset="1" stop-color="#172a88"/>
    </radialGradient>
    <radialGradient id="_未命名的渐变_14" data-name="未命名的渐变 14" cx="-1.81" cy="33.41" fx="-1.81" fy="33.41" r="20.73" gradientTransform="translate(.35 31.75) scale(1 -1)" gradientUnits="userSpaceOnUse">
      <stop offset="0" stop-color="#a1d8e6"/>
      <stop offset=".5" stop-color="#22ac38"/>
      <stop offset="1" stop-color="#172a88"/>
    </radialGradient>
    <clipPath id="clippath-3">
      <path class="cls-1" d="m7.99,25.73c-.53-.31-1.02-.67-1.47-1.07-1.75-1.59-2.86-3.88-2.86-6.43,0-3.66,2.27-6.79,5.47-8.06.54-.21,1.1-.37,1.69-.48,4.66-.82,5.9,4.27,1.21,6.68-6.5,3.34-6.43,7.98-4.04,9.36h0Z"/>
    </clipPath>
    <radialGradient id="_未命名的渐变_15" data-name="未命名的渐变 15" cx="16.15" cy="23.79" fx="16.15" fy="23.79" r="22.43" gradientTransform="translate(.35 31.75) scale(1 -1)" gradientUnits="userSpaceOnUse">
      <stop offset="0" stop-color="#a1d8e6"/>
      <stop offset="0" stop-color="#95d4d6"/>
      <stop offset=".05" stop-color="#72c7a6"/>
      <stop offset=".09" stop-color="#55bd7e"/>
      <stop offset=".13" stop-color="#3fb65f"/>
      <stop offset=".17" stop-color="#2eb049"/>
      <stop offset=".2" stop-color="#25ad3c"/>
      <stop offset=".23" stop-color="#22ac38"/>
      <stop offset=".3" stop-color="#21a13e"/>
      <stop offset=".42" stop-color="#1e854f"/>
      <stop offset=".57" stop-color="#1a576b"/>
      <stop offset=".7" stop-color="#172a88"/>
      <stop offset=".74" stop-color="#183f7a"/>
      <stop offset=".86" stop-color="#1d7956"/>
      <stop offset=".95" stop-color="#209e40"/>
      <stop offset="1" stop-color="#22ac38"/>
    </radialGradient>
    <radialGradient id="_未命名的渐变_16" data-name="未命名的渐变 16" cx="21.88" cy="27.77" fx="21.88" fy="27.77" r="22.24" gradientTransform="translate(.35 31.75) scale(1 -1)" gradientUnits="userSpaceOnUse">
      <stop offset="0" stop-color="#a1d8e6"/>
      <stop offset=".5" stop-color="#22ac38"/>
      <stop offset="1" stop-color="#172a88"/>
    </radialGradient>
    <radialGradient id="_未命名的渐变_17" data-name="未命名的渐变 17" cx="19.51" cy="25.92" fx="19.51" fy="25.92" r="24.91" gradientTransform="translate(.35 31.75) scale(1 -1)" gradientUnits="userSpaceOnUse">
      <stop offset="0" stop-color="#a1d8e6"/>
      <stop offset=".02" stop-color="#88cfc4"/>
      <stop offset=".04" stop-color="#69c49a"/>
      <stop offset=".07" stop-color="#4fbb76"/>
      <stop offset=".09" stop-color="#3bb45b"/>
      <stop offset=".12" stop-color="#2daf47"/>
      <stop offset=".14" stop-color="#24ac3b"/>
      <stop offset=".17" stop-color="#22ac38"/>
      <stop offset=".28" stop-color="#209b41"/>
      <stop offset=".48" stop-color="#1d715b"/>
      <stop offset=".77" stop-color="#172d85"/>
      <stop offset=".78" stop-color="#172a88"/>
      <stop offset=".83" stop-color="#18407a"/>
      <stop offset=".92" stop-color="#1d7857"/>
      <stop offset="1" stop-color="#22ac38"/>
    </radialGradient>
    <radialGradient id="_未命名的渐变_18" data-name="未命名的渐变 18" cx="21.38" cy="27.59" fx="21.38" fy="27.59" r="22.05" gradientTransform="translate(.35 31.75) scale(1 -1)" gradientUnits="userSpaceOnUse">
      <stop offset="0" stop-color="#a1d8e6"/>
      <stop offset=".63" stop-color="#22ac38"/>
      <stop offset=".99" stop-color="#172a88"/>
    </radialGradient>
    <radialGradient id="_未命名的渐变_19" data-name="未命名的渐变 19" cx="19.89" cy="24.64" fx="19.89" fy="24.64" r="26.02" gradientTransform="translate(.35 31.75) scale(1 -1)" gradientUnits="userSpaceOnUse">
      <stop offset="0" stop-color="#a1d8e6"/>
      <stop offset=".39" stop-color="#22ac38"/>
      <stop offset=".4" stop-color="#21a53b"/>
      <stop offset=".53" stop-color="#1c705c"/>
      <stop offset=".65" stop-color="#194a74"/>
      <stop offset=".74" stop-color="#173282"/>
      <stop offset=".79" stop-color="#172a88"/>
      <stop offset=".93" stop-color="#1e8350"/>
      <stop offset="1" stop-color="#22ac38"/>
    </radialGradient>
    <clipPath id="clippath-4">
      <path class="cls-1" d="m14.62,5.61c.53.31,1.02.67,1.47,1.07,1.75,1.59,2.86,3.88,2.86,6.43,0,3.66-2.27,6.79-5.47,8.06-.54.21-1.1.37-1.69.48-4.66.82-5.9-4.27-1.21-6.68,6.49-3.34,6.43-7.98,4.04-9.36Z"/>
    </clipPath>
    <radialGradient id="_未命名的渐变_20" data-name="未命名的渐变 20" cx="6.45" cy="21.6" fx="6.45" fy="21.6" r="10.88" gradientTransform="translate(0 31.86) scale(1 -1)" gradientUnits="userSpaceOnUse">
      <stop offset="0" stop-color="#a1d8e6"/>
      <stop offset=".5" stop-color="#22ac38"/>
      <stop offset="1" stop-color="#172a88"/>
    </radialGradient>
    <radialGradient id="_未命名的渐变_21" data-name="未命名的渐变 21" cx="96.7" cy=".2" fx="96.7" fy=".2" r="14.09" gradientTransform="translate(-83.52 .81) rotate(4.66) scale(1 -1)" gradientUnits="userSpaceOnUse">
      <stop offset="0" stop-color="#a1d8e6"/>
      <stop offset=".5" stop-color="#22ac38"/>
      <stop offset="1" stop-color="#172a88"/>
    </radialGradient>
    <radialGradient id="_未命名的渐变_22" data-name="未命名的渐变 22" cx="11.97" cy="-12.04" fx="11.97" fy="-12.04" r="10.36" gradientTransform="translate(-.07 -.9) rotate(6.25) scale(1 -1)" gradientUnits="userSpaceOnUse">
      <stop offset="0" stop-color="#a1d8e6"/>
      <stop offset=".5" stop-color="#22ac38"/>
      <stop offset="1" stop-color="#172a88"/>
    </radialGradient>
    <radialGradient id="_未命名的渐变_23" data-name="未命名的渐变 23" cx="13.62" cy="22.07" fx="13.62" fy="22.07" r="13.18" gradientTransform="translate(.35 31.75) scale(1 -1)" gradientUnits="userSpaceOnUse">
      <stop offset="0" stop-color="#a1d8e6"/>
      <stop offset=".5" stop-color="#22ac38"/>
      <stop offset="1" stop-color="#172a88"/>
    </radialGradient>
    <radialGradient id="_未命名的渐变_24" data-name="未命名的渐变 24" cx="14.71" cy="21.75" fx="14.71" fy="21.75" r="13.99" gradientTransform="translate(.35 31.75) scale(1 -1)" gradientUnits="userSpaceOnUse">
      <stop offset="0" stop-color="#a1d8e6"/>
      <stop offset=".5" stop-color="#22ac38"/>
      <stop offset="1" stop-color="#172a88"/>
    </radialGradient>
    <clipPath id="clippath-5">
      <path class="cls-1" d="m9.36,26.37c4.79,1.74,7.1-5.37.87-6.13-5.02-.62-6.92-2.57-6.05-4.97-.34.95-.52,1.96-.52,2.96,0,2.77,1.3,5.24,3.33,6.83.71.56,1.51,1,2.37,1.32h0Z"/>
    </clipPath>
    <radialGradient id="_未命名的渐变_25" data-name="未命名的渐变 25" cx="-61.09" cy="39" fx="-61.09" fy="39" r="10.71" gradientTransform="translate(70.91 50.98) rotate(-3.96) scale(1 -1)" gradientUnits="userSpaceOnUse">
      <stop offset="0" stop-color="#a1d8e6"/>
      <stop offset=".5" stop-color="#22ac38"/>
      <stop offset="1" stop-color="#172a88"/>
    </radialGradient>
    <radialGradient id="_未命名的渐变_26" data-name="未命名的渐变 26" cx="-46.51" cy="48.57" fx="-46.51" fy="48.57" r="15" gradientTransform="translate(57.35 61.52) rotate(-5.75) scale(1 -1)" gradientUnits="userSpaceOnUse">
      <stop offset="0" stop-color="#a1d8e6"/>
      <stop offset=".5" stop-color="#22ac38"/>
      <stop offset="1" stop-color="#172a88"/>
    </radialGradient>
    <radialGradient id="_未命名的渐变_27" data-name="未命名的渐变 27" cx="-89.21" cy="-1.86" fx="-89.21" fy="-1.86" r="11.98" gradientTransform="translate(88.4 14.71) rotate(-2.57) scale(.94 -.97) skewX(-1.4)" gradientUnits="userSpaceOnUse">
      <stop offset="0" stop-color="#a1d8e6"/>
      <stop offset=".5" stop-color="#22ac38"/>
      <stop offset="1" stop-color="#172a88"/>
    </radialGradient>
    <radialGradient id="_未命名的渐变_28" data-name="未命名的渐变 28" cx="6.66" cy="13.91" fx="6.66" fy="13.91" r="11.92" gradientTransform="translate(.35 31.75) scale(1 -1)" gradientUnits="userSpaceOnUse">
      <stop offset="0" stop-color="#a1d8e6"/>
      <stop offset=".5" stop-color="#22ac38"/>
      <stop offset="1" stop-color="#172a88"/>
    </radialGradient>
  </defs>
  <g id="_图层_1-2" data-name=" 图层 1-2">
    <g>
      <g>
        <g>
          <g>
            <polygon class="cls-8" points="26.05 10.47 26.05 9.92 24.38 9.5 24.37 9.49 24.37 10.04 26.04 10.46 26.05 10.47"/>
            <path class="cls-8" d="m24.65,14.16c1.24-.8,2.21-1.89,2.59-2.95l.11-.36h-4.43v.53h3.69c-.46.92-1.39,1.85-2.53,2.5-.45-.25-.81-.36-1.13-.36h-.26v1.5s0,0,0,0h.51v-.94c.18.05.39.13.64.27,1.06.58,1.9.67,4.07.67h0v-.53h0c-1.68,0-2.5-.05-3.26-.35h0Z"/>
          </g>
          <g>
            <polygon class="cls-8" points="31.5 11.03 31.5 10.41 30.19 9.58 30.17 9.57 30.17 10.19 31.49 11.03 31.5 11.03"/>
            <path class="cls-8" d="m31.5,13.52v-.81c-.52.68-1.1,1.28-1.64,1.75h0v.68h.02c.53-.43,1.09-.98,1.63-1.63h0s0,0,0,0Z"/>
            <polygon class="cls-8" points="31.14 12.35 31.14 11.73 29.87 10.93 29.86 10.92 29.86 11.54 31.13 12.34 31.14 12.35"/>
            <polygon class="cls-8" points="33.64 10.52 34.93 10.52 34.93 10 31.82 10 31.82 10.52 33.12 10.52 33.12 14.36 31.48 14.36 31.48 14.89 35.27 14.89 35.27 14.36 33.64 14.36 33.64 10.52"/>
          </g>
          <g>
            <polygon class="cls-8" points="38.15 10.51 41.66 10.51 41.66 11.36 42.16 11.36 42.16 10.01 40.29 10.01 39.91 9.57 39.25 9.57 39.63 10.01 37.66 10.01 37.66 11.36 38.15 11.36 38.15 10.51"/>
            <polygon class="cls-8" points="39.21 10.98 38.53 10.98 39.28 11.81 39.96 11.81 39.21 10.98"/>
            <polygon class="cls-8" points="37.91 11.8 37.91 11.8 38.66 12.63 39.33 12.63 38.58 11.8 37.91 11.8"/>
            <polygon class="cls-8" points="40.2 13.84 41.64 15.09 42.4 15.09 40.97 13.84 40.2 13.84"/>
            <path class="cls-8" d="m41.05,10.98h-.53c-.25.71-.59,1.37-1,1.99h-2.19v.51h1.83c-.44.58-.96,1.11-1.56,1.61h.77c.54-.5,1.01-1.04,1.42-1.61h2.71v-.51h-2.37c.38-.62.69-1.28.93-1.99h0Z"/>
          </g>
          <g>
            <rect class="cls-8" x="47.39" y="11.47" width="2.02" height=".48"/>
            <path class="cls-8" d="m48.04,9.72l-1.14,1.17v.65l1.46-1.47s.06-.01.08,0l1.46,1.47v-.65l-1.14-1.17c-.19-.18-.52-.18-.72,0h0Z"/>
            <rect class="cls-8" x="44.74" y="13.49" width="1.27" height=".48"/>
            <path class="cls-8" d="m46.71,9.88h-1.61v.49h1.07l-.22,1.99h-.46l.14-1.48h-.48l-.19,1.95h1.46l-.18,1.64c-.01.11-.05.23-.31.2l-.73-.09v.48l.68.08s.08,0,.12,0c.48,0,.68-.32.72-.64l.24-2.15h-.53l.28-2.48h0Z"/>
            <path class="cls-8" d="m49.76,12.34h-.5c-.14.55-.3,1.06-.48,1.52l-.19-1.41h-.47l.23,1.69h.32c-.05.13-.11.25-.17.37h-1.5v.47h2.8v-.47h-.81c.29-.63.58-1.37.77-2.17h0Z"/>
            <polygon class="cls-8" points="47.47 14.15 47.94 14.15 47.72 12.45 47.24 12.45 47.47 14.15"/>
          </g>
          <g>
            <polygon class="cls-8" points="54.56 13.93 56.14 13.93 56.14 13.45 54.56 13.45 54.56 13.01 54.08 13.01 54.08 13.45 52.51 13.45 52.51 13.93 54.08 13.93 54.08 14.5 51.97 14.5 51.97 14.98 56.68 14.98 56.68 14.5 54.56 14.5 54.56 13.93"/>
            <polygon class="cls-8" points="54.69 10.04 54.36 9.59 53.77 9.59 54.09 10.04 51.99 10.04 51.99 11.13 52.47 11.13 52.47 10.53 56.18 10.53 56.18 11.13 56.65 11.13 56.65 10.04 54.69 10.04"/>
            <polygon class="cls-8" points="55.44 11.85 54.89 11.85 55.13 12.24 53.53 12.24 53.85 11.59 55.8 11.59 55.8 11.13 52.84 11.13 52.84 11.59 53.31 11.59 52.76 12.7 55.41 12.7 55.53 12.9 56.07 12.9 55.44 11.85"/>
          </g>
        </g>
        <g>
          <polygon class="cls-8" points="48.37 16.94 48.37 21.79 50.23 21.79 50.23 21.29 48.93 21.29 48.93 16.94 48.37 16.94"/>
          <path class="cls-8" d="m56.3,19.46c-.08-.09-.21-.15-.32-.18l-.06-.02.05-.02c.09-.03.19-.09.28-.18.22-.22.34-.49.34-.85,0-.51-.15-.78-.35-.99-.2-.2-.46-.29-.88-.29h-.93v4.85s.96,0,.96,0c.43,0,.7-.09.89-.29.22-.23.38-.53.38-1.1,0-.31-.1-.67-.35-.94h0Zm-1.33-2.02h.34c.47,0,.74.22.74.8s-.29.8-.74.8h-.34v-1.6Zm.39,3.86h-.39v-1.79h.39c.46,0,.77.28.77.89,0,.64-.28.89-.77.89h0Z"/>
          <path class="cls-8" d="m52.42,16.94h-.25l-1.28,4.85h.58l.28-1.15h1.07l.28,1.15h.58l-1.28-4.85h0Zm-.54,3.2l.42-1.72.42,1.72h-.84,0Z"/>
          <polygon class="cls-8" points="31.06 17.43 31.06 16.94 29.26 16.94 29.26 21.79 31.06 21.79 31.06 21.3 29.81 21.3 29.81 19.57 30.93 19.57 30.93 19.07 29.81 19.07 29.81 17.43 31.06 17.43"/>
          <polygon class="cls-8" points="24.61 17.08 24.61 16.94 22.76 16.94 22.76 17.43 23.98 17.43 22.67 21.64 22.67 21.79 24.61 21.79 24.61 21.29 23.31 21.29 24.61 17.08"/>
          <polygon class="cls-8" points="28.06 21.79 28.06 16.94 27.51 16.94 27.5 19.07 26.39 19.07 26.39 16.94 25.83 16.94 25.83 21.79 26.39 21.79 26.39 19.57 27.5 19.57 27.5 21.79 28.06 21.79"/>
          <polygon class="cls-8" points="34.65 16.94 34.65 21.79 35.2 21.79 35.21 16.94 34.65 16.94"/>
          <polygon class="cls-8" points="42.22 21.79 42.22 16.94 41.67 16.94 41.67 19.99 40.13 16.94 39.87 16.94 39.87 21.79 40.43 21.79 40.43 18.74 41.98 21.79 42.22 21.79"/>
          <path class="cls-8" d="m45.07,18.12h.56c0-.4-.12-.72-.34-.94-.2-.2-.46-.3-.78-.3h0c-.35,0-.61.11-.82.34-.34.37-.35.96-.35,2.14s.02,1.76.35,2.14c.21.23.48.34.82.34.69,0,1.12-.46,1.12-1.21v-1.43h-1.1v.46h.54v.99c0,.42-.22.7-.56.7-.18,0-.32-.07-.41-.19-.18-.24-.21-.66-.21-1.79s.03-1.55.21-1.79c.1-.13.23-.19.41-.19h0c.46,0,.56.4.56.74h0Z"/>
          <path class="cls-8" d="m37.65,16.94h-.25l-1.28,4.85h.58l.28-1.15h1.08l.28,1.15h.58l-1.28-4.85h0Zm-.54,3.2l.42-1.72.42,1.72h-.84,0Z"/>
          <path class="cls-8" d="m32.95,16.94v3.7c0,.43-.24.71-.6.71-.15,0-.33-.07-.44-.18v.59c.14.05.28.08.44.08.36,0,.64-.11.85-.32.2-.21.3-.51.3-.88v-3.7h-.56Z"/>
        </g>
      </g>
      <g>
        <g class="cls-7">
          <g>
            <path class="cls-36" d="m13.52,5.08c.35.35.7.69.95,1.12,1.07,1.78.67,4.11-.81,5.56-1.67,1.63-4,2.49-5.43,4.39-.89,1.19-1.18,2.55-.71,3.96.67,2.01,2.52,3.18,4.47,3.73,1.21.34,2.48.49,3.74.5.2,0,.4,0,.57-.09.9-.44-.38-1.01-.74-1.15-.79-.31-1.58-.6-2.39-.85-.72-.23-1.54-.34-2.23-.63-1.15-.48-1.54-1.52-1.57-2.66-.05-1.61,1.94-2.87,3.16-3.53,2.27-1.23,3.94-2.63,4.54-4.84.44-1.61.48-2.86-.29-4.38-.39-.77-.86-1.51-1.45-2.15-.53-.57-1.35-1.3-2.16-1.36-.61-.05-.7.61-.57,1.07.15.53.52.94.9,1.33h0Z"/>
            <path class="cls-35" d="m16.43,20.42c-1.13,1.3-2.55,2.84-4.33,3.17-.13.02-.28.03-.38-.06-.41-.39-.21-1.72.07-1.89,3.2-1.89,5.79-4.4,5.94-7.71.05-1.03-.16-1.91-.37-2.89-.3-1.38-1.03-2.54-2.04-3.51-.52-.5-1.02-.98-1.52-1.49-.54-.54-1.16-1.01-1.89-1.26-.26-.09-.54-.16-.76-.32-.23-.16-.39-.45-.31-.72.06-.22.28-.37.5-.41.22-.05.45-.01.67.03,4.3.86,6.84,4.95,7.5,9.01.16.95.06,1.91-.13,2.85-.3,1.5-1.08,2.85-2.02,4.04-.3.38-.61.76-.94,1.13h0Z"/>
            <path class="cls-33" d="m11.8,8.16c-.08-.06-.16-.11-.26-.15-.4-.17-.97,0-1.06.43-.08.39.25.72.53,1.01,1.27,1.3,1.91,2.84,2.44,4.5.44,1.39.68,5.64-3.27,7.61-.63.31-1.36.33-2.06.24-.86-.12-1.55-.62-2.35-.92-.23-.08-.47-.12-.71-.07-.39.09-.66.44-.66.84,0,.48.4.83.79,1.05,2.95,1.7,8.81.11,10.02-3.41,1.47-4.29-.37-6.94-2.26-10.2-.02-.03-.52-.12-.54-.15-.17-.29-.36-.59-.63-.78h0Z"/>
            <path class="cls-34" d="m10.05,18.69c-.05-1.71.8-3.52,2.37-4.29.89-.43,1.87-.54,2.8-.83,2.22-.68,3.92-2.41,4.95-4.46.08-.15.15-.31.28-.43.12-.12.31-.19.47-.12.15.06.24.22.25.38.02.16-.02.32-.06.47-.3,1.15-.86,2.32-1.54,3.3-1.15,1.66-2.96,2.31-4.86,2.71-.77.16-1.62.35-2.21.9-.9.83-.79,2.37-.2,3.35.42.7,1.06,1.25,1.76,1.66.66.4,1.53.53,2.12,1.02.07.06.14.12.17.2.05.13,0,.27-.07.39-.44.66-1.59.34-2.21.18-2.06-.54-3.94-2.17-4.01-4.42h0Z"/>
            <path class="cls-32" d="m13.69,5.56c-.23-.12-.5-.17-.73-.04-.79.44.06,1.53.41,1.97.45.55,1.02.99,1.49,1.53,1.32,1.52,2.42,4.26,1.07,5.92-.93,1.14-2.98,1.44-4.33,1.96-1.72.66-2.56,1.72-2.55,3.31.01,1.29.91,2.42,2,3.07.74.44,1.62.64,2.47.62.31,0,.96-.09.99-.47.04-.35-.22-.7-.5-.84-1.02-.5-2.79-1.06-2.71-2.52.04-.86,1.03-1.47,2.13-1.77,3.28-.89,4.17-1.57,4.61-3.89.4-2.13-.29-3.73-1.21-5.29-.73-1.24-1.76-2.46-2.88-3.37-.08-.07-.18-.13-.28-.18h0Z"/>
          </g>
        </g>
        <g class="cls-6">
          <g>
            <path class="cls-29" d="m15.58,25.64c.04-.33.01-.67-.02-.9-.16-1.09-.65-2.14-1.45-2.91-1.05-1.02-2.45-1.46-3.86-1.76-1.06-.22-2.11-.43-3.09-.92-.89-.43-1.61-1.03-2.09-1.89-.47-.87-.62-1.92-.39-2.88.07-.31.18-.61.19-.93,0-.32-.12-.66-.4-.81-.3-.16-.68-.04-.91.2s-.35.57-.42.89c-.24,1.03.19,1.69.22,2.77.05,1.88.79,3.19,2.18,4.02,2.54,1.51,4.99.91,6.66,2.11.56.4,1.04.89,1.35,1.51.2.4.32.83.4,1.27.08.43.23,1.05.73,1.15.62.12.84-.39.9-.95h0Z"/>
            <path class="cls-30" d="m13.68,25.01c-.92-.29-1.83-.62-2.71-1-1.63-.7-3.28-1.93-4.29-3.43-.63-.93-.92-2.02-1.02-3.12-.05-.55-.05-1.11-.04-1.66.01-.51.3-1.42-.19-1.78-.75-.56-1.02.45-1.09,1.02-.16,1.32-.16,2.71.08,4.02.19,1.05.57,2.07,1.15,2.97,1.02,1.6,2.65,2.49,4.31,3.27,2.13,1.01,4.27,1.48,6.38,2.28.45.17,1.06.36,1.5.07.49-.31.46-1.02-.05-1.28-1.26-.66-2.69-.94-4.04-1.37h0Z"/>
            <path class="cls-31" d="m6.2,24.41c-1.21-.7-2.14-1.76-3.17-2.69-.43-.39-2.49-2.23-2.99-1.08-.18.43.27.76.57.96,2.62,1.75,4.55,4.96,7.86,5.54,2.39.42,5.1-.82,6.09-3.08.69-1.58.05-3.68-.71-5.14-.22-.43-.55-.93-1.03-1.12-.49-.19-1.06.01-1.26.52-.26.68.36,1.29.7,1.81.56.88.75,2.04.48,3.04-.39,1.47-1.89,2.18-3.32,2.2-1.14.02-2.25-.39-3.22-.96h0Z"/>
            <path class="cls-28" d="m1.84,18.61c-.11.03-.22.13-.31.31-.16.33.04.71.25.98.75,1,1.57,1.94,2.56,2.74,1.09.88,1.79,1.63,3.93,1.45,1.75-.15,2.35-.63,3.52-.43,1.16.2,1.25,1.72.55,2.46-.52.55-1.16.55-1.83.8-.78.29-1.58.68-2.21,1.25-.45.41-.93.99-.98,1.62-.05.68.61,1.23,1.27.94.52-.23.84-.77,1.19-1.19.43-.51,1-1.06,1.64-1.28,1.07-.36,2.14-.99,2.7-2.01.56-1.03.41-2.47-.18-3.46-.36-.61-.93-1.06-1.59-1.32-1.04-.42-2.11-.24-3.13.13-.71.26-1.28.6-2.06.61-1.67.02-3.14-1.47-4.13-2.71-.22-.28-.76-1.01-1.18-.89Z"/>
          </g>
        </g>
        <g>
          <g class="cls-5">
            <g>
              <path class="cls-9" d="m16.69,20.09c0,.52-.02,1.3.35,1.72.45.51,1.13.01,1.24-.53.12-.58-.05-1.16-.1-1.73-.05-.57.02-1.16.13-1.72.23-1.17.63-2.3.82-3.47.39-2.38-.11-4.81-.61-7.17-.07-.33-.15-.67-.38-.91-.39-.4-.98-.41-1.24.13-.2.42.05.77.17,1.17,1.36,4.62.45,5.76.02,8.74-.06.41-.42,2.29-.42,3.78h0Z"/>
              <path class="cls-16" d="m13.92,8.47c-.88-1.57-2.3-3.13-3.76-4.31-.84-.68-1.86-1.26-2.94-1.4-.49-.06-.85.28-.82.8.04.81.84,1.26,1.44,1.58.84.45,1.58,1.04,2.25,1.73,1.29,1.34,2.51,2.92,2.98,4.83.55,2.21.08,4.64-.51,6.81-.13.5-.3,1.2.09,1.61.31.33.86.27,1.22-.02.35-.29.55-.74.69-1.18.36-1.15,1.09-2.92.88-5.35-.16-1.82-.69-3.64-1.51-5.1h0Z"/>
              <path class="cls-18" d="m9.85,2.62c-.52.84-.89,1.78-1.15,2.72-.19.71-.42,1.52-.34,2.26.11,1.04.53,2.05,1.34,2.73,1.73,1.46,4.22,1.28,6.13,2.39.52.31.99.71,1.37,1.18.37.45.56,1.11,1,1.49.1.09.22.16.35.15.33-.03.49-.45.49-.73,0-.6-.25-1.25-.51-1.77-.51-1.01-1.05-2.46-5.59-3.04-1.32-.17-2.67-1.25-2.94-2.59-.31-1.52.56-3.15,1.67-4.13.89-.79,2-1.25,2.84-2.1.2-.2.4-.47.32-.74-.08-.31-.46-.42-.78-.44-1.15-.05-2.27.47-3.1,1.26-.42.4-.78.86-1.09,1.36h0Z"/>
              <path class="cls-17" d="m20.79,15.26c.37.06.64-.21.71-.62.08-.48-.06-.71-.35-1.09-.74-.96-2.5-3.85-4.91-5.32-.83-.51-2.46-1.36-5.02-1.53-1.4-.09-3.31.19-4.61.68-.7.26-2.48.71-1.88,1.81.44.82,1.97.08,2.57-.1,2.14-.65,4.36-.83,6.56-.03,2.04.74,3.56,2.51,4.93,4.19.54.66.96,1.49,1.74,1.91.09.05.18.08.27.09h0Z"/>
              <path class="cls-14" d="m17.51,14.82c.47-2.21.63-4.41-.06-6.51-.58-1.77-2.19-3.33-4.03-3.68-1.05-.2-2.15-.15-3.17.16-.91.28-1.7.81-2.44,1.39-.58.46-1.04,1.06-1.36,1.73-.24.5-.72,1.51-.07,1.88.66.38,1.23-.26,1.55-.78.49-.78.85-1.64,1.64-2.18,2.29-1.57,5.42-.57,6.04,2.29.42,1.93.76,4.25.11,6.09-.22.63-.57,1.19-.96,1.72-.31.42-1.02,1.01-.88,1.58.14.57.81.67,1.29.5.43-.15.75-.59,1.02-.95.71-.98,1.07-2.08,1.32-3.25h0Z"/>
            </g>
          </g>
          <g class="cls-3">
            <g>
              <path class="cls-10" d="m15.8,11.54c-.51-1.02-1.88-1.74-2.84-2.08-2.69-.96-6.29.75-8.07,2.8-1.74,2-2.39,4.71-1.85,7.29.46,2.18,1.04,4.37,1.01,6.61-.02,1.3-.55,2.31-1.09,3.47-.26.56-.54,1.32-.05,1.84.97,1.04,2.3-.74,2.68-1.54.81-1.69,1.18-3.71.72-5.56-.27-1.99-1-3.89-1.13-5.9-.08-1.29.07-2.62.65-3.79.67-1.35,1.76-2.02,3.08-2.62,1.83-.84,4.12-1.54,5.75.09.16.17.32.35.52.47.51.31.89-.1.78-.64-.03-.16-.09-.31-.16-.45h0Z"/>
              <path class="cls-11" d="m6.73,16.41c-.37,2.27.27,4.95,1.67,6.44.19.21.45.39.74.43.16.02.33-.02.44-.13.19-.2.12-.53.04-.8-.47-1.51-1.15-2.97-1.15-4.58,0-1.28.38-3.08,1.41-3.95,1.43-1.21,3.05-.61,3.5,1.07.15.57.29,3.03,1.25,2.75.38-.11.54-.57.57-.97.11-1.17-.13-3.09-.91-4.1-1.2-1.56-3.39-1.92-5.14-.72-1.48,1.02-2.15,2.91-2.42,4.55h0Z"/>
              <path class="cls-12" d="m15.36,14.06c.24-.68.29-1.41.19-2.13-.1-.72-.35-1.43-.74-2.05-1-1.58-2.65-1.78-4.38-1.63-.25.02-.51.05-.73.17-.22.12-.39.37-.35.62.08.46.65.33.97.31.43-.03.86,0,1.28.08.7.14,1.39.49,1.78,1.11.87,1.36.3,3.17-.66,3.97-1.27,1.07-3.71,1.39-5.62,2.07-1.52.54-2.68,1.83-3.27,3.31-.48,1.22-.55,2.72-.34,4,.1.64,1.34,3.99,2.31,2.22.39-.71-.46-1.94-.54-2.68-.16-1.54.22-3.29,1.46-4.3,2.27-1.86,5.76-1.38,7.77-3.63.37-.42.68-.9.86-1.43h0Z"/>
              <path class="cls-15" d="m7.73,9.83c-4.54,5.84-1.59,11.53,4.56,14.31.4.23.88.46,1.35.64.93.36,1.83.54,2.07.12.32-.58-.06-.95-.72-1.33-.33-.19-.72-.38-1.13-.6-5.75-2.26-9.02-9.33-3.73-12.95,1.29-.89,1.92-1.86,1.44-2.3-.65-.6-2.47.37-3.83,2.12Z"/>
              <path class="cls-13" d="m5.84,22.25c-.05,1.37.12,2.79.67,4.05.47,1.06,1.74,2.85,3.1,2.71.65-.07.73-.66.52-1.16-.64-1.58-2.02-1.08-2.56-4.1-.39-2.15.29-4.22,1.69-5.73.91-.97,1.72-1.95,2.18-2.84.72-1.41,1.05-2.76.94-4.27-.12-1.57-.3-2.88-.76-4.56-.12-.45-.34-.98-.69-1.3-.45-.41-1.14-.29-1.28.37-.12.59.21,1.26.39,1.8.21.66.41,1.33.55,2.01.28,1.32.36,2.71-.04,4.02,0,0,0,0,0,0-.57,1.82-2.44,3.15-3.45,4.73-.84,1.32-1.22,2.76-1.27,4.24h0Z"/>
            </g>
          </g>
          <g class="cls-4">
            <g>
              <path class="cls-20" d="m13.52,5.08c.35.35.7.69.95,1.12,1.07,1.78.67,4.11-.81,5.56-1.67,1.63-4,2.49-5.43,4.39-.89,1.19-1.18,2.55-.71,3.96.67,2.01,2.52,3.18,4.47,3.73,1.21.34,2.48.49,3.74.5.2,0,.4,0,.57-.09.9-.44-.38-1.01-.74-1.15-.79-.31-1.58-.6-2.39-.85-.72-.23-1.54-.34-2.23-.63-1.15-.48-1.54-1.52-1.57-2.66-.05-1.61,1.94-2.87,3.16-3.53,2.27-1.23,3.94-2.63,4.54-4.84.44-1.61.48-2.86-.29-4.38-.39-.77-.86-1.51-1.45-2.15-.53-.57-1.35-1.3-2.16-1.36-.61-.05-.7.61-.57,1.07.15.53.52.94.9,1.33h0Z"/>
              <path class="cls-27" d="m16.43,20.42c-1.13,1.3-2.55,2.84-4.33,3.17-.13.02-.28.03-.38-.06-.41-.39-.21-1.72.07-1.89,3.2-1.89,5.79-4.4,5.94-7.71.05-1.03-.16-1.91-.37-2.89-.3-1.38-1.03-2.54-2.04-3.51-.52-.5-1.02-.98-1.52-1.49-.54-.54-1.16-1.01-1.89-1.26-.26-.09-.54-.16-.76-.32-.23-.16-.39-.45-.31-.72.06-.22.28-.37.5-.41.22-.05.45-.01.67.03,4.3.86,6.84,4.95,7.5,9.01.16.95.06,1.91-.13,2.85-.3,1.5-1.08,2.85-2.02,4.04-.3.38-.61.76-.94,1.13h0Z"/>
              <path class="cls-23" d="m11.8,8.16c-.08-.06-.16-.11-.26-.15-.4-.17-.97,0-1.06.43-.08.39.25.72.53,1.01,1.27,1.3,1.91,2.84,2.44,4.5.44,1.39.68,5.64-3.27,7.61-.63.31-1.36.33-2.06.24-.86-.12-1.55-.62-2.35-.92-.23-.08-.47-.12-.71-.07-.39.09-.66.44-.66.84,0,.48.4.83.79,1.05,2.95,1.7,8.81.11,10.02-3.41,1.47-4.29-.37-6.94-2.26-10.2-.02-.03-.52-.12-.54-.15-.17-.29-.36-.59-.63-.78h0Z"/>
              <path class="cls-26" d="m10.05,18.69c-.05-1.71.8-3.52,2.37-4.29.89-.43,1.87-.54,2.8-.83,2.22-.68,3.92-2.41,4.95-4.46.08-.15.15-.31.28-.43.12-.12.31-.19.47-.12.15.06.24.22.25.38.02.16-.02.32-.06.47-.3,1.15-.86,2.32-1.54,3.3-1.15,1.66-2.96,2.31-4.86,2.71-.77.16-1.62.35-2.21.9-.9.83-.79,2.37-.2,3.35.42.7,1.06,1.25,1.76,1.66.66.4,1.53.53,2.12,1.02.07.06.14.12.17.2.05.13,0,.27-.07.39-.44.66-1.59.34-2.21.18-2.06-.54-3.94-2.17-4.01-4.42h0Z"/>
              <path class="cls-22" d="m13.69,5.56c-.23-.12-.5-.17-.73-.04-.79.44.06,1.53.41,1.97.45.55,1.02.99,1.49,1.53,1.32,1.52,2.42,4.26,1.07,5.92-.93,1.14-2.98,1.44-4.33,1.96-1.72.66-2.56,1.72-2.55,3.31.01,1.29.91,2.42,2,3.07.74.44,1.62.64,2.47.62.31,0,.96-.09.99-.47.04-.35-.22-.7-.5-.84-1.02-.5-2.79-1.06-2.71-2.52.04-.86,1.03-1.47,2.13-1.77,3.28-.89,4.17-1.57,4.61-3.89.4-2.13-.29-3.73-1.21-5.29-.73-1.24-1.76-2.46-2.88-3.37-.08-.07-.18-.13-.28-.18h0Z"/>
            </g>
          </g>
          <g class="cls-2">
            <g>
              <path class="cls-21" d="m15.58,25.64c.04-.33.01-.67-.02-.9-.16-1.09-.65-2.14-1.45-2.91-1.05-1.02-2.45-1.46-3.86-1.76-1.06-.22-2.11-.43-3.09-.92-.89-.43-1.61-1.03-2.09-1.89-.47-.87-.62-1.92-.39-2.88.07-.31.18-.61.19-.93,0-.32-.12-.66-.4-.81-.3-.16-.68-.04-.91.2s-.35.57-.42.89c-.24,1.03.19,1.69.22,2.77.05,1.88.79,3.19,2.18,4.02,2.54,1.51,4.99.91,6.66,2.11.56.4,1.04.89,1.35,1.51.2.4.32.83.4,1.27.08.43.23,1.05.73,1.15.62.12.84-.39.9-.95h0Z"/>
              <path class="cls-25" d="m13.68,25.01c-.92-.29-1.83-.62-2.71-1-1.63-.7-3.28-1.93-4.29-3.43-.63-.93-.92-2.02-1.02-3.12-.05-.55-.05-1.11-.04-1.66.01-.51.3-1.42-.19-1.78-.75-.56-1.02.45-1.09,1.02-.16,1.32-.16,2.71.08,4.02.19,1.05.57,2.07,1.15,2.97,1.02,1.6,2.65,2.49,4.31,3.27,2.13,1.01,4.27,1.48,6.38,2.28.45.17,1.06.36,1.5.07.49-.31.46-1.02-.05-1.28-1.26-.66-2.69-.94-4.04-1.37h0Z"/>
              <path class="cls-19" d="m6.2,24.41c-1.21-.7-2.14-1.76-3.17-2.69-.43-.39-2.49-2.23-2.99-1.08-.18.43.27.76.57.96,2.62,1.75,4.55,4.96,7.86,5.54,2.39.42,5.1-.82,6.09-3.08.69-1.58.05-3.68-.71-5.14-.22-.43-.55-.93-1.03-1.12-.49-.19-1.06.01-1.26.52-.26.68.36,1.29.7,1.81.56.88.75,2.04.48,3.04-.39,1.47-1.89,2.18-3.32,2.2-1.14.02-2.25-.39-3.22-.96h0Z"/>
              <path class="cls-24" d="m1.84,18.61c-.11.03-.22.13-.31.31-.16.33.04.71.25.98.75,1,1.57,1.94,2.56,2.74,1.09.88,1.79,1.63,3.93,1.45,1.75-.15,2.35-.63,3.52-.43,1.16.2,1.25,1.72.55,2.46-.52.55-1.16.55-1.83.8-.78.29-1.58.68-2.21,1.25-.45.41-.93.99-.98,1.62-.05.68.61,1.23,1.27.94.52-.23.84-.77,1.19-1.19.43-.51,1-1.06,1.64-1.28,1.07-.36,2.14-.99,2.7-2.01.56-1.03.41-2.47-.18-3.46-.36-.61-.93-1.06-1.59-1.32-1.04-.42-2.11-.24-3.13.13-.71.26-1.28.6-2.06.61-1.67.02-3.14-1.47-4.13-2.71-.22-.28-.76-1.01-1.18-.89Z"/>
            </g>
          </g>
        </g>
      </g>
    </g>
  </g>
</svg>