<?xml version="1.0" encoding="UTF-8"?>
<svg id="_图层_2" data-name="图层 2" xmlns="http://www.w3.org/2000/svg" xmlns:xlink="http://www.w3.org/1999/xlink" viewBox="0 0 916.58 379.37">
  <defs>
    <style>
      .cls-1 {
        clip-path: url(#clippath-7);
      }

      .cls-1, .cls-2, .cls-3, .cls-4, .cls-5, .cls-6, .cls-7 {
        fill: none;
      }

      .cls-2 {
        clip-path: url(#clippath-6);
      }

      .cls-3 {
        clip-path: url(#clippath-3);
      }

      .cls-4 {
        clip-path: url(#clippath-4);
      }

      .cls-5 {
        clip-path: url(#clippath-2);
      }

      .cls-6 {
        clip-path: url(#clippath-1);
      }

      .cls-8 {
        fill: #172a88;
      }

      .cls-9 {
        fill: url(#_未命名的渐变_27);
      }

      .cls-10 {
        fill: url(#_未命名的渐变_32);
      }

      .cls-11 {
        fill: url(#_未命名的渐变_57);
      }

      .cls-12 {
        fill: url(#_未命名的渐变_57-20);
      }

      .cls-13 {
        fill: url(#_未命名的渐变_57-21);
      }

      .cls-14 {
        fill: url(#_未命名的渐变_57-22);
      }

      .cls-15 {
        fill: url(#_未命名的渐变_57-23);
      }

      .cls-16 {
        fill: url(#_未命名的渐变_57-19);
      }

      .cls-17 {
        fill: url(#_未命名的渐变_57-14);
      }

      .cls-18 {
        fill: url(#_未命名的渐变_57-11);
      }

      .cls-19 {
        fill: url(#_未命名的渐变_57-10);
      }

      .cls-20 {
        fill: url(#_未命名的渐变_57-13);
      }

      .cls-21 {
        fill: url(#_未命名的渐变_57-17);
      }

      .cls-22 {
        fill: url(#_未命名的渐变_57-18);
      }

      .cls-23 {
        fill: url(#_未命名的渐变_57-16);
      }

      .cls-24 {
        fill: url(#_未命名的渐变_57-15);
      }

      .cls-25 {
        fill: url(#_未命名的渐变_57-12);
      }

      .cls-7 {
        clip-rule: evenodd;
      }

      .cls-26 {
        fill: url(#_未命名的渐变_6);
      }

      .cls-27 {
        fill: url(#_未命名的渐变_7);
      }

      .cls-28 {
        fill: url(#_未命名的渐变_5);
      }

      .cls-29 {
        fill: url(#_未命名的渐变_57-3);
      }

      .cls-30 {
        fill: url(#_未命名的渐变_57-9);
      }

      .cls-31 {
        fill: url(#_未命名的渐变_57-5);
      }

      .cls-32 {
        fill: url(#_未命名的渐变_57-2);
      }

      .cls-33 {
        fill: url(#_未命名的渐变_57-6);
      }

      .cls-34 {
        fill: url(#_未命名的渐变_57-7);
      }

      .cls-35 {
        fill: url(#_未命名的渐变_57-8);
      }

      .cls-36 {
        fill: url(#_未命名的渐变_57-4);
      }
    </style>
    <clipPath id="clippath-1">
      <path id="SVGID" class="cls-7" d="m189.47,15.8c9.15,5.29,17.68,11.53,25.47,18.57,30.33,27.41,49.39,67.06,49.38,111.16,0,63.24-39.21,117.32-94.63,139.27-9.29,3.68-19.04,6.48-29.14,8.25-80.64,14.21-102.09-73.78-20.99-115.47C231.85,119.85,230.69,39.58,189.47,15.8Z"/>
    </clipPath>
    <radialGradient id="_未命名的渐变_57" data-name="未命名的渐变 57" cx="48.09" cy="96.08" fx="48.09" fy="96.08" r="188.09" gradientTransform="translate(103.36 39.85) rotate(-4.13)" gradientUnits="userSpaceOnUse">
      <stop offset="0" stop-color="#a1d8e6"/>
      <stop offset=".5" stop-color="#22ac38"/>
      <stop offset="1" stop-color="#172a88"/>
    </radialGradient>
    <radialGradient id="_未命名的渐变_57-2" data-name="未命名的渐变 57" cx="215.16" cy="99.4" fx="215.16" fy="99.4" r="243.6" gradientTransform="translate(-47.14 -51.39) rotate(4.66)" xlink:href="#_未命名的渐变_57"/>
    <radialGradient id="_未命名的渐变_57-3" data-name="未命名的渐变 57" cx="89.83" cy="183.29" fx="89.83" fy="183.29" r="179.2" gradientTransform="translate(49.08 -59.36) rotate(6.25)" xlink:href="#_未命名的渐变_57"/>
    <radialGradient id="_未命名的渐变_57-4" data-name="未命名的渐变 57" cx="177.86" cy="86.28" fx="177.86" fy="86.28" r="227.83" gradientTransform="translate(.35 -.11)" xlink:href="#_未命名的渐变_57"/>
    <radialGradient id="_未命名的渐变_57-5" data-name="未命名的渐变 57" cx="196.74" cy="91.75" fx="196.74" fy="91.75" r="241.82" gradientTransform="translate(.35 -.11)" xlink:href="#_未命名的渐变_57"/>
    <clipPath id="clippath-2">
      <path id="SVGID-2" data-name="SVGID" class="cls-7" d="m98.52,374.62c82.83,30.16,122.7-92.78,15.05-106.06C26.81,257.85-6.14,224.18,9,182.6,3.04,198.98,0,216.41,0,233.84c0,47.93,22.5,90.6,57.52,118.01,12.27,9.61,26.08,17.34,40.99,22.77Z"/>
    </clipPath>
    <radialGradient id="_未命名的渐变_57-6" data-name="未命名的渐变 57" cx="9.77" cy="162.9" fx="9.77" fy="162.9" r="185.18" gradientTransform="translate(41.38 38.68) rotate(-3.96)" xlink:href="#_未命名的渐变_57"/>
    <radialGradient id="_未命名的渐变_57-7" data-name="未命名的渐变 57" cx="12.07" cy="170.84" fx="12.07" fy="170.84" r="259.29" gradientTransform="translate(14.93 58.72) rotate(-5.75)" xlink:href="#_未命名的渐变_57"/>
    <radialGradient id="_未命名的渐变_57-8" data-name="未命名的渐变 57" cx="-79.48" cy="266.14" fx="-79.48" fy="266.14" r="207.14" gradientTransform="translate(75.71 8.13) rotate(-2.57) scale(.94 .97) skewX(1.4)" xlink:href="#_未命名的渐变_57"/>
    <radialGradient id="_未命名的渐变_57-9" data-name="未命名的渐变 57" cx="57.45" cy="227.41" fx="57.45" fy="227.41" r="206.12" gradientTransform="translate(.35 -.11)" xlink:href="#_未命名的渐变_57"/>
    <clipPath id="clippath-3">
      <path id="SVGID-3" data-name="SVGID" class="cls-7" d="m165.81,4.75c-82.83-30.16-122.7,92.78-15.05,106.06,86.75,10.71,119.7,44.38,104.56,85.96,5.96-16.38,9-33.81,9-51.24,0-47.93-22.5-90.6-57.52-118.01-12.27-9.61-26.08-17.34-40.99-22.77Z"/>
    </clipPath>
    <radialGradient id="_未命名的渐变_7" data-name="未命名的渐变 7" cx="-111.56" cy="11.65" fx="-111.56" fy="11.65" r="427.71" gradientTransform="translate(.35 -.11)" gradientUnits="userSpaceOnUse">
      <stop offset="0" stop-color="#8ec4d9"/>
      <stop offset=".5" stop-color="#4b9f38"/>
      <stop offset="1" stop-color="#023961"/>
    </radialGradient>
    <radialGradient id="_未命名的渐变_57-10" data-name="未命名的渐变 57" cx="-236.29" cy="-254.69" fx="-236.29" fy="-254.69" r="650.98" gradientTransform="translate(-83.12 -36.33) rotate(-3.34) scale(1.13 1.17) skewX(-1.41)" xlink:href="#_未命名的渐变_57"/>
    <radialGradient id="_未命名的渐变_57-11" data-name="未命名的渐变 57" cx="-67.42" cy="-255.92" fx="-67.42" fy="-255.92" r="475.77" gradientTransform="translate(.35 -.11)" xlink:href="#_未命名的渐变_57"/>
    <radialGradient id="_未命名的渐变_57-12" data-name="未命名的渐变 57" cx="-232.84" cy="-142.45" fx="-232.84" fy="-142.45" r="549.69" gradientTransform="translate(-8.87 -6.83) rotate(-1.13)" xlink:href="#_未命名的渐变_57"/>
    <radialGradient id="_未命名的渐变_57-13" data-name="未命名的渐变 57" cx="-89.02" cy="-109.78" fx="-89.02" fy="-109.78" r="358.36" gradientTransform="translate(.35 -.11)" xlink:href="#_未命名的渐变_57"/>
    <clipPath id="clippath-4">
      <path id="SVGID-4" data-name="SVGID" class="cls-7" d="m74.86,363.57c-9.15-5.29-17.68-11.53-25.47-18.57C19.05,317.59,0,277.94,0,233.84c0-63.24,39.21-117.32,94.63-139.27,9.29-3.68,19.04-6.48,29.14-8.25,80.64-14.21,102.09,73.78,20.99,115.47-112.3,57.73-111.14,137.99-69.91,161.78Z"/>
    </clipPath>
    <radialGradient id="_未命名的渐变_32" data-name="未命名的渐变 32" cx="221.57" cy="56.49" fx="221.57" fy="56.49" r="387.73" gradientTransform="translate(.35 -.11)" gradientUnits="userSpaceOnUse">
      <stop offset="0" stop-color="#a1d8e6"/>
      <stop offset=".01" stop-color="#95d4d6"/>
      <stop offset=".05" stop-color="#72c7a6"/>
      <stop offset=".09" stop-color="#55bd7e"/>
      <stop offset=".13" stop-color="#3fb65f"/>
      <stop offset=".17" stop-color="#2eb049"/>
      <stop offset=".2" stop-color="#25ad3c"/>
      <stop offset=".23" stop-color="#22ac38"/>
      <stop offset=".3" stop-color="#21a13e"/>
      <stop offset=".42" stop-color="#1e854f"/>
      <stop offset=".57" stop-color="#1a576b"/>
      <stop offset=".7" stop-color="#172a88"/>
      <stop offset=".74" stop-color="#183f7a"/>
      <stop offset=".86" stop-color="#1d7956"/>
      <stop offset=".95" stop-color="#209e40"/>
      <stop offset="1" stop-color="#22ac38"/>
    </radialGradient>
    <radialGradient id="_未命名的渐变_57-14" data-name="未命名的渐变 57" cx="320.64" cy="-12.39" fx="320.64" fy="-12.39" r="384.57" gradientTransform="translate(.35 -.11)" xlink:href="#_未命名的渐变_57"/>
    <radialGradient id="_未命名的渐变_6" data-name="未命名的渐变 6" cx="279.72" cy="19.71" fx="279.72" fy="19.71" r="430.64" gradientTransform="translate(.35 -.11)" gradientUnits="userSpaceOnUse">
      <stop offset="0" stop-color="#a1d8e6"/>
      <stop offset=".02" stop-color="#88cfc4"/>
      <stop offset=".04" stop-color="#69c49a"/>
      <stop offset=".07" stop-color="#4fbb76"/>
      <stop offset=".09" stop-color="#3bb45b"/>
      <stop offset=".12" stop-color="#2daf47"/>
      <stop offset=".14" stop-color="#24ac3b"/>
      <stop offset=".17" stop-color="#22ac38"/>
      <stop offset=".28" stop-color="#209b41"/>
      <stop offset=".48" stop-color="#1d715b"/>
      <stop offset=".77" stop-color="#172d85"/>
      <stop offset=".78" stop-color="#172a88"/>
      <stop offset=".83" stop-color="#18407a"/>
      <stop offset=".92" stop-color="#1d7857"/>
      <stop offset="1" stop-color="#22ac38"/>
    </radialGradient>
    <radialGradient id="_未命名的渐变_5" data-name="未命名的渐变 5" cx="311.99" cy="-9.27" fx="311.99" fy="-9.27" r="381.24" gradientTransform="translate(.35 -.11)" gradientUnits="userSpaceOnUse">
      <stop offset="0" stop-color="#a1d8e6"/>
      <stop offset=".63" stop-color="#22ac38"/>
      <stop offset=".99" stop-color="#172a88"/>
    </radialGradient>
    <radialGradient id="_未命名的渐变_27" data-name="未命名的渐变 27" cx="286.18" cy="41.77" fx="286.18" fy="41.77" r="449.84" gradientTransform="translate(.35 -.11)" gradientUnits="userSpaceOnUse">
      <stop offset="0" stop-color="#a1d8e6"/>
      <stop offset=".39" stop-color="#22ac38"/>
      <stop offset=".4" stop-color="#21a53b"/>
      <stop offset=".53" stop-color="#1c705c"/>
      <stop offset=".65" stop-color="#194a74"/>
      <stop offset=".74" stop-color="#173282"/>
      <stop offset=".79" stop-color="#172a88"/>
      <stop offset=".93" stop-color="#1e8350"/>
      <stop offset="1" stop-color="#22ac38"/>
    </radialGradient>
    <clipPath id="clippath-6">
      <path id="SVGID-5" data-name="SVGID" class="cls-7" d="m189.47,15.8c9.15,5.29,17.68,11.53,25.47,18.57,30.33,27.41,49.39,67.06,49.38,111.16,0,63.24-39.21,117.32-94.63,139.27-9.29,3.68-19.04,6.48-29.14,8.25-80.64,14.21-102.09-73.78-20.99-115.47C231.85,119.85,230.69,39.58,189.47,15.8Z"/>
    </clipPath>
    <radialGradient id="_未命名的渐变_57-15" data-name="未命名的渐变 57" cx="48.09" cy="96.08" fx="48.09" fy="96.08" r="188.09" xlink:href="#_未命名的渐变_57"/>
    <radialGradient id="_未命名的渐变_57-16" data-name="未命名的渐变 57" cx="215.16" cy="99.4" fx="215.16" fy="99.4" r="243.6" gradientTransform="translate(-47.14 -51.39) rotate(4.66)" xlink:href="#_未命名的渐变_57"/>
    <radialGradient id="_未命名的渐变_57-17" data-name="未命名的渐变 57" cx="89.83" cy="183.29" fx="89.83" fy="183.29" r="179.2" gradientTransform="translate(49.08 -59.36) rotate(6.25)" xlink:href="#_未命名的渐变_57"/>
    <radialGradient id="_未命名的渐变_57-18" data-name="未命名的渐变 57" cx="177.86" cy="86.28" fx="177.86" fy="86.28" r="227.83" gradientTransform="translate(.35 -.11)" xlink:href="#_未命名的渐变_57"/>
    <radialGradient id="_未命名的渐变_57-19" data-name="未命名的渐变 57" cx="196.74" cy="91.75" fx="196.74" fy="91.75" r="241.82" gradientTransform="translate(.35 -.11)" xlink:href="#_未命名的渐变_57"/>
    <clipPath id="clippath-7">
      <path id="SVGID-6" data-name="SVGID" class="cls-7" d="m98.52,374.62c82.83,30.16,122.7-92.78,15.05-106.06C26.81,257.85-6.14,224.18,9,182.6,3.04,198.98,0,216.41,0,233.84c0,47.93,22.5,90.6,57.52,118.01,12.27,9.61,26.08,17.34,40.99,22.77Z"/>
    </clipPath>
    <radialGradient id="_未命名的渐变_57-20" data-name="未命名的渐变 57" cx="9.77" cy="162.9" fx="9.77" fy="162.9" r="185.18" gradientTransform="translate(41.38 38.68) rotate(-3.96)" xlink:href="#_未命名的渐变_57"/>
    <radialGradient id="_未命名的渐变_57-21" data-name="未命名的渐变 57" cx="12.07" cy="170.84" fx="12.07" fy="170.84" r="259.29" gradientTransform="translate(14.93 58.72) rotate(-5.75)" xlink:href="#_未命名的渐变_57"/>
    <radialGradient id="_未命名的渐变_57-22" data-name="未命名的渐变 57" cx="-79.48" cy="266.14" fx="-79.48" fy="266.14" r="207.14" gradientTransform="translate(75.71 8.13) rotate(-2.57) scale(.94 .97) skewX(1.4)" xlink:href="#_未命名的渐变_57"/>
    <radialGradient id="_未命名的渐变_57-23" data-name="未命名的渐变 57" cx="57.45" cy="227.41" fx="57.45" fy="227.41" r="206.12" gradientTransform="translate(.35 -.11)" xlink:href="#_未命名的渐变_57"/>
  </defs>
  <g id="_图层_1-2" data-name="图层 1">
    <g>
      <g>
        <g>
          <g>
            <polygon class="cls-8" points="387.01 99.67 387.01 90.26 358.24 82.94 358.04 82.88 358.04 92.29 386.8 99.62 387.01 99.67"/>
            <path class="cls-8" d="m362.85,163.5c21.44-13.78,38.25-32.69,44.78-50.93l1.91-6.15h-76.63v9.14h63.76c-7.89,15.96-24.1,31.95-43.66,43.29-7.77-4.26-13.97-6.25-19.51-6.25h-4.43l-.08,25.86v.17h8.89l.05-16.3c3.14.78,6.73,2.28,10.96,4.61,18.25,10.05,32.84,11.66,70.32,11.66h.16v-9.14h-.16c-29.11,0-43.3-.9-56.37-5.98Z"/>
          </g>
          <g>
            <polygon class="cls-8" points="481.31 109.52 481.31 98.8 458.54 84.42 458.29 84.26 458.29 94.98 481.06 109.36 481.31 109.52"/>
            <path class="cls-8" d="m481.31,152.57v-13.94c-9.02,11.69-19,22.14-28.41,30.31l-.06.05v11.73l.27-.21c9.16-7.18,18.9-16.82,28.17-27.89l.04-.05Z"/>
            <polygon class="cls-8" points="475.13 132.28 475.13 121.55 453.09 107.64 452.84 107.48 452.84 118.2 474.88 132.12 475.13 132.28"/>
            <polygon class="cls-8" points="518.19 100.69 540.62 100.69 540.62 91.55 486.88 91.55 486.88 100.69 509.3 100.69 509.3 167.07 480.98 167.07 480.98 176.21 546.52 176.21 546.52 167.07 518.19 167.07 518.19 100.69"/>
          </g>
          <g>
            <polygon class="cls-8" points="596.32 100.52 656.97 100.52 656.97 115.2 665.52 115.2 665.52 91.73 633.31 91.73 626.7 84.17 615.2 84.17 621.81 91.73 587.76 91.73 587.76 115.2 596.32 115.2 596.32 100.52"/>
            <polygon class="cls-8" points="614.55 108.59 602.86 108.59 615.85 122.92 627.54 122.92 614.55 108.59"/>
            <polygon class="cls-8" points="592.12 122.71 592.03 122.79 605.01 137.12 616.7 137.12 603.64 122.71 592.12 122.71"/>
            <polygon class="cls-8" points="631.78 158.1 656.57 179.72 669.8 179.72 645.01 158.1 631.78 158.1"/>
            <path class="cls-8" d="m646.37,108.59h-9.17c-4.4,12.34-10.2,23.76-17.32,34.45h-37.87v8.79h31.58c-7.66,9.95-16.55,19.25-26.93,27.89h13.27c9.4-8.69,17.51-17.98,24.51-27.89h46.85v-8.79h-41.05c6.6-10.74,12-22.16,16.14-34.45Z"/>
          </g>
          <g>
            <rect class="cls-8" x="756.08" y="117.09" width="34.88" height="8.26"/>
            <path class="cls-8" d="m767.33,86.8l-19.73,20.22v11.32l25.27-25.35c.25-.21,1.06-.21,1.3,0l25.27,25.35v-11.32l-19.73-20.23c-3.36-3.1-9.03-3.1-12.39,0Z"/>
            <rect class="cls-8" x="710.18" y="151.89" width="21.96" height="8.38"/>
            <path class="cls-8" d="m744.24,89.52h-27.87v8.52h18.54l-3.88,34.42h-7.88l2.42-25.53h-8.33l-3.24,33.69h25.2l-3.11,28.29c-.2,1.91-.82,3.92-5.31,3.44l-12.61-1.52v8.29l11.72,1.41c.71.07,1.39.11,2.03.11,8.23,0,11.82-5.57,12.4-11.07l4.16-37.11h-9.11l4.85-42.94Z"/>
            <path class="cls-8" d="m797.05,132.15h-8.57c-2.39,9.46-5.23,18.29-8.37,26.34l-3.29-24.45h-8.16l3.94,29.27h5.59c-.95,2.22-1.93,4.34-2.93,6.4h-25.97v8.06h48.48v-8.06h-14.04c4.94-10.91,9.95-23.67,13.33-37.55Z"/>
            <polygon class="cls-8" points="757.36 163.31 765.59 163.31 761.66 134.04 753.43 134.04 757.36 163.31"/>
          </g>
          <g>
            <polygon class="cls-8" points="879.99 159.57 907.24 159.57 907.24 151.25 879.99 151.25 879.99 143.65 871.73 143.65 871.73 151.25 844.48 151.25 844.48 159.57 871.73 159.57 871.73 169.48 835.15 169.48 835.15 177.77 916.58 177.77 916.58 169.48 879.99 169.48 879.99 159.57"/>
            <polygon class="cls-8" points="882.22 92.25 876.59 84.6 866.24 84.6 871.86 92.25 835.54 92.25 835.54 111.09 843.8 111.09 843.8 100.75 907.93 100.75 907.93 111.09 916.19 111.09 916.19 92.25 882.22 92.25"/>
            <polygon class="cls-8" points="895.14 123.61 885.67 123.61 889.75 130.31 862.11 130.31 867.71 119.16 901.47 119.16 901.47 111.09 850.25 111.09 850.25 119.16 858.41 119.16 848.78 138.34 894.64 138.34 896.7 141.73 906.17 141.73 895.14 123.61"/>
          </g>
        </g>
        <g>
          <polygon class="cls-8" points="773 211.61 773 295.46 805.03 295.46 805.03 286.91 782.62 286.91 782.63 211.61 773 211.61"/>
          <path class="cls-8" d="m910.01,255.17c-1.37-1.48-3.56-2.53-5.58-3.12l-1.08-.26.87-.29c1.6-.53,3.2-1.58,4.76-3.13,3.78-3.78,5.86-8.4,5.86-14.62,0-8.76-2.61-13.4-6.1-17.12-3.39-3.51-7.94-5.01-15.21-5.01h-16.07s-.02,83.84-.02,83.84h16.64c7.43,0,12.05-1.49,15.45-5,3.79-3.9,6.58-9.23,6.58-19.01,0-5.44-1.68-11.64-6.1-16.29Zm-22.94-35h5.96c8.06,0,12.76,3.88,12.76,13.82s-5.01,13.8-12.76,13.8h-5.96v-27.62Zm6.76,66.75h-6.77v-30.94h6.77c7.96,0,13.23,4.92,13.23,15.47,0,11.13-4.83,15.46-13.23,15.46Z"/>
          <path class="cls-8" d="m843.05,211.59h-4.24l-22.06,83.85h10.07l4.82-19.91h18.58l4.82,19.91h10.07l-22.06-83.85Zm-9.34,55.37l7.22-29.81,7.22,29.81h-14.44Z"/>
          <polygon class="cls-8" points="473.73 220.05 473.73 211.57 442.5 211.57 442.5 295.43 473.73 295.43 473.73 286.94 452.04 286.94 452.04 257.01 471.4 257.01 471.4 248.53 452.04 248.53 452.04 220.05 473.73 220.05"/>
          <polygon class="cls-8" points="362.14 214.07 362.14 211.57 330.22 211.57 330.22 220.12 351.22 220.12 328.67 292.93 328.67 295.43 362.13 295.43 362.13 286.87 339.71 286.87 362.14 214.07"/>
          <polygon class="cls-8" points="421.82 295.43 421.83 211.58 412.21 211.58 412.2 248.46 392.89 248.46 392.89 211.58 383.27 211.58 383.26 295.43 392.88 295.43 392.88 257.14 412.2 257.14 412.19 295.43 421.82 295.43"/>
          <polygon class="cls-8" points="535.72 211.59 535.7 295.45 545.33 295.45 545.34 211.59 535.72 211.59"/>
          <polygon class="cls-8" points="666.67 295.47 666.68 211.61 657.06 211.61 657.17 264.34 630.5 211.6 625.99 211.6 625.98 295.46 635.6 295.46 635.61 242.75 662.4 295.47 666.67 295.47"/>
          <path class="cls-8" d="m715.9,232.04h9.62c-.17-6.95-2.13-12.41-5.84-16.23-3.4-3.41-7.92-5.13-13.43-5.13h-.02c-5.98,0-10.63,1.94-14.24,5.95-5.83,6.42-6.09,16.52-6.09,36.93s.26,30.51,6.08,36.92c3.6,4,8.26,5.95,14.25,5.96,11.89,0,19.28-8.02,19.29-20.94v-24.73h-18.99v7.97h9.36v17.13c0,7.31-3.79,12.03-9.66,12.03-3.06,0-5.45-1.13-7.11-3.34-3.09-4.21-3.61-11.43-3.61-30.99,0-19.58.53-26.81,3.62-31,1.65-2.2,4.02-3.31,7.08-3.31h.02c7.87,0,9.62,6.89,9.67,12.8Z"/>
          <path class="cls-8" d="m587.67,211.6h-4.24l-22.06,83.85h10.07l4.82-19.91h18.59l4.82,19.91h10.07l-22.06-83.85Zm-9.34,55.37l7.22-29.81,7.22,29.81h-14.44Z"/>
          <path class="cls-8" d="m506.32,211.59v63.98c0,7.45-4.07,12.27-10.37,12.27-2.56,0-5.65-1.24-7.67-3.12v10.26c2.35.91,4.91,1.42,7.67,1.42,6.17,0,11.13-1.88,14.73-5.6,3.44-3.55,5.26-8.81,5.26-15.21v-63.98s-9.62,0-9.62,0Z"/>
        </g>
      </g>
      <g>
        <g class="cls-6">
          <path class="cls-11" d="m170.43,6.53c5.98,6.09,12.06,11.94,16.5,19.3,18.5,30.69,11.56,71.1-13.95,96.06-28.82,28.19-69.17,43.07-93.87,75.86-15.46,20.53-20.45,44.15-12.3,68.55,11.62,34.76,43.53,54.99,77.33,64.52,20.92,5.9,42.94,8.41,64.64,8.56,3.38.02,6.9-.05,9.94-1.54,15.55-7.63-6.49-17.38-12.74-19.87-13.58-5.42-27.35-10.33-41.29-14.73-12.48-3.94-26.55-5.89-38.54-10.91-19.85-8.3-26.56-26.34-27.12-46.04-.79-27.91,33.6-49.68,54.67-61.1,39.25-21.27,68.12-45.39,78.5-83.68,7.54-27.83,8.22-49.52-5.09-75.72-6.77-13.32-14.91-26.14-25.12-37.1-9.09-9.77-23.26-22.41-37.3-23.57-10.55-.87-12.16,10.51-9.85,18.45,2.67,9.17,8.93,16.18,15.58,22.95Z"/>
          <path class="cls-32" d="m220.72,271.8c-19.53,22.48-44.16,49.15-74.92,54.87-2.23.42-4.83.59-6.49-.96-7.13-6.69-3.55-29.82,1.25-32.65,55.39-32.65,100.15-76.04,102.7-133.31.79-17.74-2.77-33.05-6.41-49.96-5.13-23.82-17.77-43.85-35.21-60.61-8.94-8.59-17.58-16.91-26.28-25.7-9.31-9.4-19.99-17.4-32.6-21.76-4.53-1.57-9.31-2.77-13.21-5.57-3.9-2.8-6.75-7.76-5.38-12.37,1.11-3.76,4.79-6.33,8.63-7.16,3.83-.84,7.82-.23,11.67.54,74.38,14.86,118.19,85.6,129.72,155.82,2.69,16.42,1.04,33.04-2.25,49.3-5.27,25.99-18.68,49.31-35,69.9-5.15,6.5-10.56,13.1-16.22,19.6Z"/>
          <path class="cls-29" d="m140.7,59.9c-1.37-1.03-2.84-1.9-4.44-2.57-6.95-2.91-16.8.11-18.28,7.5-1.34,6.7,4.33,12.51,9.11,17.39,22,22.46,33.06,49.17,42.2,77.84,7.68,24.06,11.83,97.48-56.49,131.56-10.81,5.39-23.59,5.72-35.56,4.08-14.9-2.05-26.72-10.8-40.57-15.84-3.95-1.44-8.06-2.12-12.21-1.15-6.69,1.56-11.42,7.65-11.45,14.5-.03,8.31,6.95,14.3,13.59,18.12,51.08,29.34,152.4,1.93,173.27-58.92,25.43-74.13-6.44-120.02-39.07-176.34-.33-.57-8.93-2.04-9.26-2.61-2.94-5-6.29-10.12-10.84-13.54Z"/>
          <path class="cls-36" d="m110.34,241.87c-.9-29.52,13.76-60.86,40.91-74.12,15.31-7.48,32.31-9.33,48.44-14.31,38.31-11.81,67.69-41.62,85.6-77.06,1.33-2.64,2.64-5.38,4.79-7.41,2.15-2.03,5.38-3.23,8.12-2.13,2.56,1.02,4.08,3.79,4.39,6.53.31,2.74-.37,5.48-1.07,8.14-5.23,19.86-14.92,40.15-26.62,57.02-19.93,28.75-51.25,39.86-83.99,46.85-13.28,2.84-28.06,6.09-38.27,15.51-15.61,14.4-13.73,40.91-3.54,57.89,7.25,12.08,18.39,21.56,30.39,28.7,11.49,6.84,26.4,9.15,36.72,17.59,1.19.97,2.35,2.06,2.92,3.48.88,2.19.17,4.73-1.14,6.69-7.68,11.46-27.45,5.88-38.29,3.03-35.54-9.36-68.18-37.6-69.37-76.4Z"/>
          <path class="cls-31" d="m173.33,14.86c-4.02-2.06-8.67-3-12.68-.77-13.69,7.64.98,26.45,7.09,34.02,7.74,9.59,17.7,17.18,25.76,26.5,22.75,26.33,41.81,73.71,18.54,102.31-16.11,19.79-51.56,24.93-74.89,33.82-29.79,11.34-44.25,29.67-44.01,57.22.2,22.36,15.74,41.77,34.66,53,12.75,7.57,28.01,11.06,42.78,10.79,5.43-.1,16.53-1.47,17.2-8.19.61-6.09-3.72-12.09-8.56-14.44-17.65-8.6-48.19-18.26-46.87-43.58.77-14.84,17.89-25.4,36.87-30.55,56.71-15.38,72.12-27.14,79.69-67.33,6.93-36.82-5.04-64.48-21-91.44-12.68-21.42-30.5-42.47-49.8-58.22-1.4-1.15-3.03-2.25-4.78-3.15Z"/>
        </g>
        <g class="cls-5">
          <path class="cls-33" d="m206.03,362.01c.63-5.73.24-11.66-.31-15.48-2.73-18.91-11.26-36.95-25-50.3-18.11-17.59-42.38-25.23-66.7-30.39-18.31-3.88-36.41-7.49-53.37-15.83-15.31-7.52-27.92-17.77-36.1-32.76-8.21-15.04-10.79-33.14-6.82-49.83,1.26-5.31,3.16-10.55,3.28-16.01.12-5.46-2.02-11.41-6.85-13.96-5.11-2.7-11.74-.64-15.79,3.48-4.05,4.12-6,9.84-7.31,15.47-4.16,17.87,3.24,29.27,3.77,47.81.94,32.51,13.62,55.19,37.69,69.56,43.85,26.18,86.2,15.82,115.15,36.5,9.69,6.92,17.96,15.38,23.27,26.15,3.41,6.93,5.57,14.41,6.93,21.99,1.32,7.39,3.93,18.17,12.58,19.93,10.66,2.16,14.54-6.81,15.59-16.34Z"/>
          <path class="cls-34" d="m173.24,351.18c-15.87-5.09-31.56-10.69-46.84-17.24-28.1-12.05-56.71-33.43-74.12-59.25-10.83-16.06-15.94-34.88-17.61-54.01-.84-9.56-.88-19.17-.61-28.76.24-8.81,5.14-24.49-3.33-30.75-13-9.6-17.72,7.77-18.9,17.72-2.72,22.87-2.73,46.88,1.35,69.59,3.26,18.17,9.85,35.74,19.83,51.3,17.72,27.64,45.77,43,74.49,56.61,36.88,17.49,73.75,25.62,110.34,39.45,7.79,2.94,18.25,6.21,26.02,1.28,8.5-5.39,8.03-17.59-.78-22.19-21.86-11.41-46.5-16.26-69.83-23.74Z"/>
          <path class="cls-35" d="m43.85,340.82c-20.93-12.14-37.03-30.41-54.8-46.48-7.43-6.72-43.03-38.55-51.66-18.65-3.19,7.36,4.62,13.13,9.82,16.6,45.28,30.25,78.6,85.8,135.9,95.74,41.38,7.18,88.24-14.1,105.38-53.33,11.93-27.3.82-63.62-12.36-88.84-3.88-7.42-9.44-16.13-17.84-19.4-8.46-3.29-18.38.24-21.72,8.95-4.52,11.78,6.22,22.3,12.03,31.36,9.71,15.13,12.96,35.19,8.33,52.58-6.75,25.37-32.75,37.73-57.36,38.08-19.72.28-38.87-6.82-55.73-16.6Z"/>
          <path class="cls-30" d="m-31.54,240.49c-1.97.56-3.8,2.2-5.34,5.35-2.82,5.75.77,12.3,4.24,16.88,13.03,17.22,27.23,33.57,44.27,47.38,18.84,15.27,30.92,28.12,67.91,25.04,30.22-2.51,40.58-10.85,60.8-7.42,20.14,3.42,21.54,29.79,9.54,42.49-9.01,9.54-20.06,9.56-31.7,13.82-13.55,4.95-27.28,11.7-38.16,21.57-7.8,7.08-16.15,17.11-16.88,28.09-.78,11.82,10.58,21.29,21.97,16.31,9.04-3.95,14.52-13.35,20.65-20.58,7.45-8.78,17.28-18.37,28.4-22.11,18.42-6.2,36.96-17.1,46.65-34.77,9.74-17.76,7.14-42.71-3.05-59.75-6.3-10.54-16.16-18.26-27.5-22.78-18.03-7.2-36.48-4.18-54.2,2.25-12.26,4.45-22.16,10.39-35.68,10.55-28.89.35-54.37-25.41-71.48-46.9-3.85-4.83-13.12-17.51-20.44-15.42Z"/>
        </g>
        <g>
          <g class="cls-3">
            <path class="cls-27" d="m225.14,266.13c0,8.99-.3,22.43,6.1,29.71,7.81,8.89,19.61.25,21.5-9.08,2.02-9.99-.79-20.01-1.71-29.95-.92-9.94.35-20.05,2.25-29.82,3.95-20.21,10.91-39.72,14.23-60.07,6.72-41.16-1.89-83.11-10.47-123.92-1.18-5.63-2.53-11.58-6.55-15.68-6.77-6.91-16.99-7.03-21.49,2.29-3.53,7.31.92,13.26,2.94,20.16,23.45,79.89,7.73,99.53.39,151.05-1.01,7.08-7.23,39.51-7.21,65.32Z"/>
            <path class="cls-19" d="m177.33,65.24c-15.29-27.22-39.74-54.06-65.03-74.51-14.58-11.79-32.22-21.81-50.9-24.25-8.51-1.11-14.67,4.78-14.25,13.76.66,14.01,14.5,21.73,24.94,27.35,14.53,7.82,27.34,17.94,38.91,29.94,22.39,23.22,43.36,50.54,51.58,83.43,9.56,38.25,1.4,80.14-8.75,117.71-2.33,8.63-5.21,20.72,1.53,27.87,5.33,5.65,14.91,4.64,21.04-.3,6.13-4.94,9.48-12.72,11.9-20.38,6.3-19.93,18.84-50.41,15.17-92.44-2.75-31.46-12-63-26.14-88.18Z"/>
            <path class="cls-18" d="m106.95-35.92c-9.01,14.52-15.42,30.86-19.85,46.97-3.36,12.21-7.3,26.35-5.93,39.03,1.92,17.9,9.1,35.4,23.1,47.24,29.94,25.31,72.97,22.08,105.94,41.4,9.03,5.29,17.1,12.23,23.73,20.32,6.42,7.82,9.7,19.24,17.27,25.82,1.7,1.48,3.84,2.7,6.09,2.53,5.7-.45,8.49-7.74,8.43-12.57-.12-10.3-4.31-21.61-8.89-30.68-8.86-17.53-18.22-42.57-96.64-52.48-22.88-2.89-46.09-21.59-50.87-44.74-5.41-26.21,9.76-54.39,28.88-71.42,15.34-13.66,34.53-21.63,49.08-36.34,3.44-3.48,6.9-8.08,5.61-12.8-1.46-5.35-8.02-7.29-13.55-7.56-19.8-.95-39.18,8.21-53.57,21.84-7.27,6.89-13.51,14.84-18.84,23.43Z"/>
            <path class="cls-25" d="m296.17,182.5c6.38,1.02,11.05-3.68,12.21-10.78,1.35-8.22-1.09-12.36-6.04-18.79-12.77-16.57-43.22-66.49-84.89-91.96-14.32-8.76-42.58-23.53-86.8-26.47-24.27-1.61-57.15,3.35-79.78,11.79-12.07,4.5-42.8,12.35-32.58,31.33,7.67,14.25,33.99,1.4,44.5-1.77,36.97-11.17,75.4-14.3,113.47-.55,35.28,12.75,61.59,43.39,85.22,72.51,9.32,11.48,16.53,25.8,30.09,33.07,1.61.86,3.15,1.39,4.6,1.62Z"/>
            <path class="cls-20" d="m239.45,174.95c8.08-38.14,10.82-76.27-1.09-112.56C228.32,31.82,200.57,4.8,168.61-1.31c-18.13-3.47-37.09-2.57-54.77,2.8-15.73,4.78-29.4,13.94-42.13,24.11-9.99,7.97-18.02,18.37-23.48,29.91-4.09,8.64-12.44,26.08-1.19,32.51,11.42,6.53,21.25-4.55,26.82-13.47,8.46-13.54,14.77-28.34,28.4-37.65,39.63-27.08,93.71-9.91,104.46,39.6,7.23,33.32,13.13,73.55,1.92,105.37-3.81,10.82-9.89,20.54-16.65,29.74-5.28,7.18-17.63,17.48-15.19,27.39,2.41,9.8,14.07,11.63,22.27,8.69,7.42-2.66,12.97-10.16,17.55-16.47,12.32-16.97,18.56-36.03,22.84-56.26Z"/>
          </g>
          <g class="cls-4">
            <path class="cls-10" d="m209.86,118.18c-8.77-17.6-32.54-30.04-49.11-35.96-46.49-16.61-108.72,12.96-139.58,48.47-30.02,34.54-41.32,81.37-31.93,125.99,7.93,37.71,18.01,75.51,17.47,114.34-.31,22.54-9.52,40-18.9,60.05-4.54,9.69-9.29,22.77-.81,31.87,16.81,18.04,39.7-12.73,46.37-26.57,14.08-29.18,20.44-64.16,12.44-96.15-4.65-34.42-17.22-67.26-19.47-102.07-1.43-22.22,1.26-45.38,11.22-65.52,11.53-23.32,30.41-34.94,53.25-45.34,31.7-14.44,71.2-26.69,99.44,1.58,2.85,2.86,5.47,6.04,8.92,8.16,8.77,5.38,15.45-1.76,13.46-11.07-.58-2.69-1.52-5.28-2.76-7.77Z"/>
            <path class="cls-17" d="m53.03,202.39c-6.46,39.3,4.64,85.56,28.83,111.42,3.35,3.58,7.83,6.81,12.8,7.48,2.75.37,5.77-.29,7.69-2.3,3.34-3.5,2.12-9.17.68-13.79-8.13-26.19-19.96-51.35-19.9-79.12.05-22.13,6.56-53.29,24.35-68.36,24.64-20.89,52.71-10.58,60.43,18.55,2.63,9.93,5.09,52.4,21.54,47.62,6.65-1.94,9.28-9.92,9.93-16.82,1.92-20.24-2.27-53.41-15.71-70.95-20.7-27.02-58.65-33.24-88.79-12.37-25.59,17.72-37.18,50.23-41.85,78.64Z"/>
            <path class="cls-26" d="m202.25,161.89c4.13-11.71,5.05-24.37,3.31-36.77-1.75-12.5-6.07-24.75-12.85-35.41-17.34-27.28-45.74-30.74-75.75-28.15-4.33.37-8.8.87-12.58,3.01-3.78,2.14-6.72,6.38-6.01,10.66,1.3,7.9,11.27,5.74,16.76,5.39,7.36-.46,14.82-.14,22.05,1.34,12.15,2.48,23.98,8.46,30.83,19.15,15.12,23.58,5.2,54.73-11.34,68.57-22.01,18.43-64.1,24.02-97.15,35.73-26.25,9.3-46.42,31.63-56.58,57.16-8.37,21.02-9.52,46.95-5.96,69.09,1.78,11.06,23.25,69.02,40.02,38.37,6.74-12.32-8.01-33.61-9.33-46.4-2.75-26.56,3.86-56.83,25.31-74.38,39.21-32.1,99.52-23.86,134.33-62.69,6.44-7.18,11.72-15.55,14.94-24.66Z"/>
            <path class="cls-28" d="m70.28,88.76c-78.51,100.92-27.56,199.29,78.91,247.39,7,3.91,15.21,7.88,23.28,11.02,16.13,6.29,31.7,9.29,35.75,2.05,5.59-9.99-1.09-16.43-12.44-22.99-5.67-3.28-12.52-6.6-19.61-10.4C76.76,276.7,20.28,154.6,111.64,91.85c22.37-15.36,33.14-32.15,24.94-39.74-11.26-10.44-42.79,6.43-66.3,36.65Z"/>
            <path class="cls-9" d="m37.58,303.35c-.8,23.68,2.02,48.21,11.67,70.04,8.08,18.29,30.05,49.32,53.53,46.86,11.27-1.18,12.58-11.39,9.07-20.04-11.1-27.35-34.85-18.62-44.24-70.83-6.67-37.1,4.96-72.97,29.22-99.03,15.67-16.82,29.69-33.7,37.62-49.18,12.48-24.36,18.22-47.69,16.27-73.76-2.03-27.13-5.14-49.82-13.09-78.76-2.13-7.76-5.81-16.98-11.87-22.51-7.82-7.15-19.65-4.99-22.05,6.48-2.12,10.14,3.67,21.72,6.68,31.15,3.66,11.44,7.03,23,9.5,34.76,4.81,22.9,6.24,46.94-.65,69.58-.01.04-.03.08-.04.12-9.83,31.39-42.22,54.52-59.61,81.78-14.59,22.86-21.15,47.78-22.02,73.31Z"/>
          </g>
          <g class="cls-2">
            <path class="cls-24" d="m170.43,6.53c5.98,6.09,12.06,11.94,16.5,19.3,18.5,30.69,11.56,71.1-13.95,96.06-28.82,28.19-69.17,43.07-93.87,75.86-15.46,20.53-20.45,44.15-12.3,68.55,11.62,34.76,43.53,54.99,77.33,64.52,20.92,5.9,42.94,8.41,64.64,8.56,3.38.02,6.9-.05,9.94-1.54,15.55-7.63-6.49-17.38-12.74-19.87-13.58-5.42-27.35-10.33-41.29-14.73-12.48-3.94-26.55-5.89-38.54-10.91-19.85-8.3-26.56-26.34-27.12-46.04-.79-27.91,33.6-49.68,54.67-61.1,39.25-21.27,68.12-45.39,78.5-83.68,7.54-27.83,8.22-49.52-5.09-75.72-6.77-13.32-14.91-26.14-25.12-37.1-9.09-9.77-23.26-22.41-37.3-23.57-10.55-.87-12.16,10.51-9.85,18.45,2.67,9.17,8.93,16.18,15.58,22.95Z"/>
            <path class="cls-23" d="m220.72,271.8c-19.53,22.48-44.16,49.15-74.92,54.87-2.23.42-4.83.59-6.49-.96-7.13-6.69-3.55-29.82,1.25-32.65,55.39-32.65,100.15-76.04,102.7-133.31.79-17.74-2.77-33.05-6.41-49.96-5.13-23.82-17.77-43.85-35.21-60.61-8.94-8.59-17.58-16.91-26.28-25.7-9.31-9.4-19.99-17.4-32.6-21.76-4.53-1.57-9.31-2.77-13.21-5.57-3.9-2.8-6.75-7.76-5.38-12.37,1.11-3.76,4.79-6.33,8.63-7.16,3.83-.84,7.82-.23,11.67.54,74.38,14.86,118.19,85.6,129.72,155.82,2.69,16.42,1.04,33.04-2.25,49.3-5.27,25.99-18.68,49.31-35,69.9-5.15,6.5-10.56,13.1-16.22,19.6Z"/>
            <path class="cls-21" d="m140.7,59.9c-1.37-1.03-2.84-1.9-4.44-2.57-6.95-2.91-16.8.11-18.28,7.5-1.34,6.7,4.33,12.51,9.11,17.39,22,22.46,33.06,49.17,42.2,77.84,7.68,24.06,11.83,97.48-56.49,131.56-10.81,5.39-23.59,5.72-35.56,4.08-14.9-2.05-26.72-10.8-40.57-15.84-3.95-1.44-8.06-2.12-12.21-1.15-6.69,1.56-11.42,7.65-11.45,14.5-.03,8.31,6.95,14.3,13.59,18.12,51.08,29.34,152.4,1.93,173.27-58.92,25.43-74.13-6.44-120.02-39.07-176.34-.33-.57-8.93-2.04-9.26-2.61-2.94-5-6.29-10.12-10.84-13.54Z"/>
            <path class="cls-22" d="m110.34,241.87c-.9-29.52,13.76-60.86,40.91-74.12,15.31-7.48,32.31-9.33,48.44-14.31,38.31-11.81,67.69-41.62,85.6-77.06,1.33-2.64,2.64-5.38,4.79-7.41,2.15-2.03,5.38-3.23,8.12-2.13,2.56,1.02,4.08,3.79,4.39,6.53.31,2.74-.37,5.48-1.07,8.14-5.23,19.86-14.92,40.15-26.62,57.02-19.93,28.75-51.25,39.86-83.99,46.85-13.28,2.84-28.06,6.09-38.27,15.51-15.61,14.4-13.73,40.91-3.54,57.89,7.25,12.08,18.39,21.56,30.39,28.7,11.49,6.84,26.4,9.15,36.72,17.59,1.19.97,2.35,2.06,2.92,3.48.88,2.19.17,4.73-1.14,6.69-7.68,11.46-27.45,5.88-38.29,3.03-35.54-9.36-68.18-37.6-69.37-76.4Z"/>
            <path class="cls-16" d="m173.33,14.86c-4.02-2.06-8.67-3-12.68-.77-13.69,7.64.98,26.45,7.09,34.02,7.74,9.59,17.7,17.18,25.76,26.5,22.75,26.33,41.81,73.71,18.54,102.31-16.11,19.79-51.56,24.93-74.89,33.82-29.79,11.34-44.25,29.67-44.01,57.22.2,22.36,15.74,41.77,34.66,53,12.75,7.57,28.01,11.06,42.78,10.79,5.43-.1,16.53-1.47,17.2-8.19.61-6.09-3.72-12.09-8.56-14.44-17.65-8.6-48.19-18.26-46.87-43.58.77-14.84,17.89-25.4,36.87-30.55,56.71-15.38,72.12-27.14,79.69-67.33,6.93-36.82-5.04-64.48-21-91.44-12.68-21.42-30.5-42.47-49.8-58.22-1.4-1.15-3.03-2.25-4.78-3.15Z"/>
          </g>
          <g class="cls-1">
            <path class="cls-12" d="m206.03,362.01c.63-5.73.24-11.66-.31-15.48-2.73-18.91-11.26-36.95-25-50.3-18.11-17.59-42.38-25.23-66.7-30.39-18.31-3.88-36.41-7.49-53.37-15.83-15.31-7.52-27.92-17.77-36.1-32.76-8.21-15.04-10.79-33.14-6.82-49.83,1.26-5.31,3.16-10.55,3.28-16.01.12-5.46-2.02-11.41-6.85-13.96-5.11-2.7-11.74-.64-15.79,3.48-4.05,4.12-6,9.84-7.31,15.47-4.16,17.87,3.24,29.27,3.77,47.81.94,32.51,13.62,55.19,37.69,69.56,43.85,26.18,86.2,15.82,115.15,36.5,9.69,6.92,17.96,15.38,23.27,26.15,3.41,6.93,5.57,14.41,6.93,21.99,1.32,7.39,3.93,18.17,12.58,19.93,10.66,2.16,14.54-6.81,15.59-16.34Z"/>
            <path class="cls-13" d="m173.24,351.18c-15.87-5.09-31.56-10.69-46.84-17.24-28.1-12.05-56.71-33.43-74.12-59.25-10.83-16.06-15.94-34.88-17.61-54.01-.84-9.56-.88-19.17-.61-28.76.24-8.81,5.14-24.49-3.33-30.75-13-9.6-17.72,7.77-18.9,17.72-2.72,22.87-2.73,46.88,1.35,69.59,3.26,18.17,9.85,35.74,19.83,51.3,17.72,27.64,45.77,43,74.49,56.61,36.88,17.49,73.75,25.62,110.34,39.45,7.79,2.94,18.25,6.21,26.02,1.28,8.5-5.39,8.03-17.59-.78-22.19-21.86-11.41-46.5-16.26-69.83-23.74Z"/>
            <path class="cls-14" d="m43.85,340.82c-20.93-12.14-37.03-30.41-54.8-46.48-7.43-6.72-43.03-38.55-51.66-18.65-3.19,7.36,4.62,13.13,9.82,16.6,45.28,30.25,78.6,85.8,135.9,95.74,41.38,7.18,88.24-14.1,105.38-53.33,11.93-27.3.82-63.62-12.36-88.84-3.88-7.42-9.44-16.13-17.84-19.4-8.46-3.29-18.38.24-21.72,8.95-4.52,11.78,6.22,22.3,12.03,31.36,9.71,15.13,12.96,35.19,8.33,52.58-6.75,25.37-32.75,37.73-57.36,38.08-19.72.28-38.87-6.82-55.73-16.6Z"/>
            <path class="cls-15" d="m-31.54,240.49c-1.97.56-3.8,2.2-5.34,5.35-2.82,5.75.77,12.3,4.24,16.88,13.03,17.22,27.23,33.57,44.27,47.38,18.84,15.27,30.92,28.12,67.91,25.04,30.22-2.51,40.58-10.85,60.8-7.42,20.14,3.42,21.54,29.79,9.54,42.49-9.01,9.54-20.06,9.56-31.7,13.82-13.55,4.95-27.28,11.7-38.16,21.57-7.8,7.08-16.15,17.11-16.88,28.09-.78,11.82,10.58,21.29,21.97,16.31,9.04-3.95,14.52-13.35,20.65-20.58,7.45-8.78,17.28-18.37,28.4-22.11,18.42-6.2,36.96-17.1,46.65-34.77,9.74-17.76,7.14-42.71-3.05-59.75-6.3-10.54-16.16-18.26-27.5-22.78-18.03-7.2-36.48-4.18-54.2,2.25-12.26,4.45-22.16,10.39-35.68,10.55-28.89.35-54.37-25.41-71.48-46.9-3.85-4.83-13.12-17.51-20.44-15.42Z"/>
          </g>
        </g>
      </g>
    </g>
  </g>
</svg>